<svg width="120" height="120" viewBox="0 0 120 120" fill="none" xmlns="http://www.w3.org/2000/svg">
<g clip-path="url(#clip0_348_73159)">
<rect width="120" height="120" fill="white"/>
<path d="M3.11122 149.589C2.86643 149.834 2.67892 150.115 2.54872 150.433C2.4133 150.756 2.34559 151.084 2.34559 151.433C2.34559 151.776 2.4133 152.105 2.54872 152.427C2.67892 152.745 2.86643 153.026 3.11122 153.271C3.35601 153.511 3.63726 153.703 3.96017 153.834C4.27788 153.964 4.61122 154.032 4.95497 154.032C5.30392 154.032 5.63726 153.964 5.95497 153.834C6.27267 153.703 6.55393 153.511 6.79872 153.271C7.04351 153.026 7.23622 152.745 7.36642 152.427C7.49663 152.105 7.56434 151.776 7.56434 151.433C7.56434 151.084 7.49663 150.756 7.36642 150.433C7.23622 150.115 7.04351 149.834 6.79872 149.589C6.55393 149.349 6.27267 149.162 5.95497 149.026C5.63726 148.896 5.30392 148.828 4.95497 148.828C4.61122 148.828 4.27788 148.896 3.96017 149.026C3.63726 149.162 3.35601 149.349 3.11122 149.589ZM28.5123 84.2712C27.6685 84.2608 26.8664 84.4274 26.0956 84.766V83.391C26.0956 81.4639 25.507 78.8649 24.3977 77.792C23.2362 76.7399 21.8768 76.2295 20.3091 76.2503C19.4758 76.2399 18.6789 76.4066 17.9185 76.7451V75.8649C17.9393 75.0003 17.7935 74.1618 17.4706 73.3493C17.1529 72.542 16.6893 71.8285 16.08 71.2087C14.9393 70.2243 13.6164 69.7035 12.1112 69.6514C10.5956 69.6358 9.2883 70.1566 8.19455 71.2087C7.58517 71.8285 7.12163 72.542 6.80392 73.3545C6.49143 74.1618 6.34038 75.0003 6.36642 75.8649V76.7712C5.84559 76.5264 5.30392 76.3649 4.73622 76.2868C4.1633 76.2087 3.6008 76.2139 3.03309 76.3076C2.46538 76.4014 1.92892 76.5733 1.4133 76.8337C0.902882 77.0889 0.439342 77.417 0.0278835 77.8128C-0.581491 78.4378 -1.04503 79.1514 -1.36274 79.9587C-1.68566 80.7712 -1.83149 81.6097 -1.81066 82.4795V97.2243C-2.58149 96.8858 -3.38878 96.7191 -4.23253 96.7295C-5.74816 96.7139 -7.05545 97.2347 -8.1492 98.2816C-8.75857 98.9014 -9.22212 99.6149 -9.54503 100.417C-9.86274 101.224 -10.019 102.058 -9.99816 102.927V115.339C-9.99816 123.151 -4.8992 128.073 -0.722116 132.089V139.813C-1.32628 139.912 -1.89399 140.11 -2.42524 140.412C-2.95649 140.709 -3.42524 141.089 -3.82108 141.552C-4.21691 142.021 -4.51899 142.537 -4.72732 143.11C-4.93566 143.683 -5.04503 144.271 -5.03982 144.886V161H-1.53983V144.886C-1.53983 144.667 -1.49816 144.459 -1.41483 144.256C-1.33149 144.058 -1.2117 143.881 -1.06066 143.724C-0.904409 143.568 -0.727324 143.453 -0.529408 143.37C-0.326283 143.287 -0.117951 143.24 0.1008 143.24H26.5018C26.7206 143.24 26.9341 143.282 27.132 143.365C27.3352 143.448 27.5123 143.568 27.6685 143.724C27.8196 143.875 27.9393 144.052 28.0227 144.256C28.106 144.459 28.1477 144.667 28.1477 144.886V161H31.6581V144.886C31.6529 144.276 31.5487 143.688 31.3352 143.115C31.1268 142.547 30.8248 142.032 30.4289 141.568C30.0331 141.105 29.5695 140.724 29.0383 140.427C28.507 140.131 27.9393 139.933 27.3352 139.834V132.11C31.5175 128.089 34.2779 123.162 34.2779 115.339V90.4743C34.2987 89.6045 34.1529 88.766 33.8352 87.9587C33.5123 87.1514 33.0487 86.4378 32.4393 85.8181C31.3404 84.766 30.0331 84.2556 28.5123 84.2712ZM30.9081 115.349C30.9081 122.271 28.5539 126.084 25.0695 129.433L23.8716 130.641L23.7883 139.745H2.79351L2.71017 130.641L1.51747 129.438C-1.95128 126.089 -6.6492 122.282 -6.6492 115.355V102.938C-6.68045 102.605 -6.63878 102.276 -6.53462 101.953C-6.42524 101.636 -6.25337 101.349 -6.0242 101.105C-5.79503 100.855 -5.51899 100.667 -5.2117 100.532C-4.8992 100.401 -4.57108 100.339 -4.23253 100.344C-3.57628 100.339 -3.00858 100.552 -2.5242 100.99C-1.97733 101.599 -1.74295 102.302 -1.81066 103.115V114.844C-1.81587 115.073 -1.7742 115.297 -1.69087 115.511C-1.61274 115.73 -1.49295 115.922 -1.3367 116.089C-1.18045 116.261 -0.998159 116.396 -0.789825 116.5C-0.581492 116.599 -0.362743 116.657 -0.133575 116.677C0.100799 116.662 0.31955 116.599 0.527884 116.5C0.736217 116.396 0.918508 116.261 1.07476 116.094C1.23101 115.922 1.3508 115.73 1.43413 115.511C1.51747 115.297 1.55913 115.073 1.55392 114.844V82.4743C1.50705 82.1306 1.5383 81.792 1.64247 81.4639C1.74663 81.1305 1.91851 80.8389 2.15288 80.5837C2.38726 80.3285 2.6633 80.1358 2.98101 80.0003C3.30392 79.8701 3.63726 79.8076 3.98622 79.8233C4.63205 79.818 5.19455 80.0368 5.66851 80.4743C6.14247 81.1097 6.37163 81.8233 6.36642 82.6097V102.391C6.36122 102.62 6.40288 102.844 6.48622 103.063C6.56434 103.276 6.68413 103.469 6.84038 103.641C6.99663 103.808 7.17893 103.943 7.38726 104.047C7.59559 104.146 7.81434 104.209 8.04351 104.224C8.27788 104.209 8.49663 104.146 8.70497 104.047C8.9133 103.943 9.09559 103.808 9.25184 103.641C9.40288 103.469 9.52268 103.276 9.60601 103.063C9.68934 102.844 9.73101 102.62 9.7258 102.391V75.8649C9.65809 75.0993 9.89767 74.4378 10.4341 73.8858C10.9185 73.4639 11.481 73.2608 12.1216 73.2712C12.7623 73.2556 13.3248 73.4639 13.8039 73.8858C14.356 74.4326 14.6008 75.0941 14.5383 75.8649C14.5383 85.5628 14.5383 92.9483 14.5383 102.657C14.5331 102.891 14.5748 103.11 14.6581 103.328C14.7414 103.542 14.8612 103.735 15.0175 103.907C15.1737 104.078 15.356 104.214 15.5643 104.313C15.7727 104.417 15.9914 104.474 16.2258 104.495C16.455 104.474 16.6737 104.417 16.882 104.313C17.0904 104.214 17.2727 104.078 17.4289 103.907C17.5852 103.735 17.705 103.542 17.7883 103.328C17.8664 103.11 17.9081 102.891 17.9029 102.657V82.4951C17.8404 81.7295 18.0748 81.0733 18.6112 80.5212C19.0852 80.0576 19.6477 79.8233 20.3091 79.8233C20.9654 79.8128 21.5383 80.0316 22.0227 80.4743C22.5591 81.0264 22.7935 81.6878 22.731 82.4535V105.573C22.705 105.813 22.7362 106.042 22.8091 106.266C22.8821 106.495 23.0018 106.693 23.1633 106.87C23.3248 107.042 23.5123 107.183 23.731 107.276C23.9498 107.37 24.1737 107.422 24.4133 107.422C24.6529 107.422 24.8768 107.37 25.0956 107.276C25.3143 107.183 25.5018 107.042 25.6633 106.87C25.8248 106.693 25.9393 106.495 26.0175 106.266C26.0904 106.042 26.1216 105.813 26.0956 105.573V90.6722C26.0071 89.8441 26.2518 89.1253 26.83 88.5264C27.0591 88.318 27.3196 88.1566 27.6112 88.0472C27.9029 87.9326 28.205 87.8753 28.5123 87.8753C28.8248 87.8753 29.1268 87.9326 29.4185 88.0472C29.705 88.1566 29.9654 88.318 30.1998 88.5264C30.7414 89.0628 30.9758 89.7139 30.9081 90.4743V115.349ZM96.705 132.078C96.4602 132.323 96.2727 132.605 96.1373 132.922C96.0071 133.245 95.9393 133.573 95.9393 133.922C95.9393 134.266 96.0071 134.594 96.1373 134.917C96.2727 135.235 96.4602 135.516 96.705 135.761C96.9498 136 97.231 136.193 97.5487 136.323C97.8716 136.453 98.205 136.521 98.5487 136.521C98.8925 136.521 99.2258 136.453 99.5487 136.323C99.8664 136.193 100.148 136 100.392 135.761C100.637 135.516 100.825 135.235 100.96 134.917C101.09 134.594 101.158 134.266 101.158 133.922C101.158 133.573 101.09 133.245 100.96 132.922C100.825 132.605 100.637 132.323 100.392 132.078C100.148 131.834 99.8664 131.646 99.5487 131.511C99.231 131.381 98.8977 131.313 98.5487 131.313C98.205 131.313 97.8716 131.375 97.5539 131.506C97.231 131.641 96.9498 131.828 96.705 132.073V132.078ZM127.861 72.9535C127.882 72.0837 127.731 71.2451 127.413 70.4378C127.096 69.6306 126.632 68.9118 126.023 68.292C124.929 67.2399 123.622 66.7243 122.106 66.7399C121.262 66.7243 120.455 66.891 119.684 67.2347V65.8701C119.684 63.943 119.101 61.3441 117.986 60.2712C116.825 59.2243 115.465 58.7087 113.903 58.7295C113.07 58.7191 112.273 58.8858 111.512 59.2243V58.3389C111.533 57.4691 111.382 56.6305 111.064 55.8233C110.741 55.0108 110.278 54.2972 109.669 53.6774C108.538 52.6983 107.221 52.1826 105.726 52.1306C104.205 52.1201 102.903 52.6358 101.809 53.6826C101.2 54.3024 100.736 55.0212 100.419 55.8285C100.096 56.6358 99.9498 57.4743 99.9654 58.3389V59.2451C99.4498 59.0055 98.9081 58.8441 98.3404 58.766C97.7727 58.6878 97.2102 58.6983 96.6425 58.7868C96.08 58.8806 95.5435 59.0576 95.0331 59.3128C94.5175 59.5681 94.0591 59.891 93.6425 60.2868C93.0331 60.9066 92.5696 61.6201 92.2518 62.4326C91.9289 63.2399 91.7831 64.0785 91.8039 64.9483V79.6983C91.0331 79.3545 90.2258 79.1931 89.382 79.2035C87.8664 79.1931 86.5591 79.7087 85.4654 80.7556C84.8508 81.3753 84.3821 82.0889 84.0591 82.9014C83.7362 83.7087 83.58 84.5472 83.5956 85.4222V97.8285C83.5956 105.641 88.705 110.563 92.882 114.578V122.302C92.2779 122.401 91.7154 122.605 91.1841 122.901C90.6581 123.198 90.1946 123.578 89.7987 124.042C89.4029 124.506 89.1008 125.021 88.8925 125.589C88.6789 126.157 88.5748 126.745 88.5695 127.355V160.98H92.0748V127.355C92.0748 127.136 92.1164 126.927 92.1998 126.724C92.2831 126.526 92.4029 126.344 92.5539 126.193C92.7102 126.037 92.8873 125.922 93.0904 125.839C93.2883 125.756 93.5018 125.714 93.7206 125.714H120.116C120.335 125.714 120.544 125.756 120.747 125.839C120.95 125.922 121.127 126.037 121.278 126.193C121.434 126.344 121.554 126.526 121.637 126.724C121.721 126.927 121.762 127.136 121.762 127.355V160.98H125.262V127.355C125.262 126.745 125.158 126.157 124.945 125.589C124.731 125.016 124.429 124.5 124.033 124.042C123.642 123.578 123.179 123.198 122.648 122.896C122.116 122.599 121.549 122.401 120.95 122.302V114.584C125.127 110.563 127.892 105.636 127.892 97.8128L127.861 72.9535ZM124.497 97.8128C124.497 104.735 122.148 108.547 118.663 111.907L117.465 113.11L117.382 122.209H96.382L96.3039 113.11L95.132 111.927C91.6633 108.568 86.9602 104.761 86.9602 97.8337V85.4066C86.9289 85.0681 86.9654 84.7399 87.0748 84.417C87.1841 84.0993 87.356 83.8128 87.5852 83.5628C87.8143 83.3181 88.0904 83.1253 88.4029 82.9951C88.7154 82.8597 89.0383 82.7972 89.382 82.8024C90.0331 82.7972 90.6008 83.016 91.0852 83.4535C91.632 84.0576 91.8664 84.7608 91.7987 85.5733V97.3076C91.7831 97.542 91.8091 97.766 91.8873 97.9899C91.9654 98.2087 92.0852 98.4066 92.2414 98.5785C92.4029 98.7503 92.5904 98.8858 92.8039 98.9795C93.0227 99.0733 93.2466 99.1201 93.481 99.1201C93.7154 99.1201 93.9393 99.0733 94.1581 98.9795C94.3716 98.8858 94.5591 98.7503 94.7154 98.5785C94.8768 98.4066 94.9966 98.2087 95.0748 97.9899C95.1529 97.766 95.1789 97.542 95.1633 97.3076V64.9483C95.1216 64.6097 95.1529 64.2712 95.257 63.9483C95.3612 63.6201 95.5331 63.3285 95.7623 63.0785C95.9966 62.8233 96.2727 62.6358 96.5904 62.5003C96.9081 62.3701 97.2362 62.3076 97.58 62.3233C98.231 62.318 98.7883 62.5316 99.2623 62.9691C99.7362 63.5993 99.9758 64.3024 99.9706 65.0889V84.8701C99.9498 85.1097 99.9758 85.3389 100.054 85.5628C100.127 85.7868 100.247 85.9899 100.403 86.1618C100.564 86.3389 100.757 86.4743 100.971 86.5733C101.189 86.667 101.419 86.7139 101.658 86.7139C101.892 86.7139 102.122 86.667 102.34 86.5733C102.559 86.4743 102.747 86.3389 102.908 86.1618C103.064 85.9899 103.184 85.7868 103.262 85.5628C103.335 85.3389 103.361 85.1097 103.34 84.8701V58.3389C103.267 57.568 103.502 56.9066 104.049 56.3597C104.528 55.9326 105.09 55.7243 105.731 55.7399C106.372 55.7295 106.934 55.9326 107.413 56.3597C107.965 56.9066 108.21 57.5628 108.148 58.3389C108.148 68.0316 108.148 75.417 108.148 85.1358C108.127 85.3701 108.153 85.5993 108.231 85.8233C108.304 86.0524 108.424 86.2503 108.585 86.4274C108.741 86.5993 108.934 86.7399 109.148 86.8337C109.366 86.9274 109.596 86.9795 109.835 86.9795C110.07 86.9795 110.299 86.9274 110.517 86.8337C110.736 86.7399 110.924 86.5993 111.085 86.4274C111.247 86.2503 111.361 86.0524 111.439 85.8233C111.512 85.5993 111.538 85.3701 111.517 85.1358V64.9899C111.445 64.2087 111.679 63.542 112.226 62.9795C112.7 62.542 113.262 62.3233 113.908 62.3337C114.564 62.3233 115.132 62.542 115.616 62.9795C116.158 63.542 116.398 64.2087 116.325 64.9899V88.1045C116.304 88.3389 116.335 88.5681 116.413 88.7868C116.486 89.0056 116.606 89.2035 116.767 89.3753C116.924 89.5472 117.111 89.6826 117.33 89.7764C117.544 89.8701 117.767 89.917 118.002 89.917C118.236 89.917 118.465 89.8701 118.679 89.7764C118.892 89.6826 119.08 89.5472 119.241 89.3753C119.398 89.2035 119.517 89.0056 119.596 88.7868C119.674 88.5681 119.705 88.3389 119.684 88.1045V73.1514C119.684 72.3128 119.747 71.667 120.424 71.0056C120.783 70.6514 121.215 70.4326 121.715 70.3493C122.21 70.266 122.689 70.3337 123.148 70.5524C123.601 70.7712 123.955 71.0993 124.2 71.542C124.45 71.9795 124.549 72.4535 124.497 72.9535V97.8128ZM49.1425 90.3962C48.8977 90.641 48.7102 90.9222 48.5748 91.2399C48.4446 91.5576 48.3768 91.891 48.3768 92.2347C48.3768 92.5785 48.4446 92.9118 48.5748 93.2295C48.7102 93.5472 48.8977 93.8285 49.1425 94.0733C49.3873 94.318 49.6685 94.5055 49.9862 94.6358C50.3091 94.7712 50.6425 94.8337 50.9862 94.8337C51.33 94.8337 51.6633 94.7712 51.9862 94.6358C52.3039 94.5055 52.5852 94.318 52.83 94.0733C53.0748 93.8285 53.2623 93.5472 53.3977 93.2295C53.5279 92.9118 53.5956 92.5785 53.5956 92.2347C53.5956 91.891 53.5279 91.5576 53.3977 91.2399C53.2623 90.9222 53.0748 90.641 52.83 90.3962C52.5852 90.1514 52.3039 89.9639 51.9862 89.8285C51.6685 89.6983 51.3352 89.6306 50.9862 89.6306C50.6425 89.6306 50.3091 89.693 49.9914 89.8233C49.6685 89.9535 49.3873 90.141 49.1425 90.3858V90.3962ZM115.356 47.1253L125.689 40.8337C126.075 40.6097 126.309 40.2764 126.398 39.8441C126.476 39.4222 126.377 39.0524 126.101 38.7243C125.986 38.5785 125.851 38.4587 125.689 38.3649L115.366 32.0837C115.033 31.8805 114.679 31.818 113.231 31.8233H80.1216C79.8768 30.6305 79.3248 29.6045 78.4654 28.7451C77.3716 27.6983 76.0643 27.1826 74.5487 27.1931C73.705 27.1774 72.8977 27.3441 72.1268 27.6878V28.4535C72.1268 26.5264 71.5383 24.9899 70.4237 23.917C69.2727 22.8858 67.9185 22.3753 66.3716 22.3962C65.5331 22.3858 64.7362 22.5524 63.9758 22.891C63.4602 22.0264 62.8508 21.2451 62.132 20.5368C60.9914 19.5576 59.6685 19.0472 58.1685 19.0003C56.6477 18.9847 55.3456 19.5056 54.2518 20.5524C53.5331 21.2556 52.9237 22.042 52.4081 22.9066C51.8925 22.6618 51.3456 22.5003 50.7779 22.4222C50.2102 22.3441 49.6425 22.3493 49.08 22.443C48.5123 22.5368 47.9758 22.7087 47.4602 22.9639C46.9498 23.2243 46.4862 23.5472 46.0695 23.943C45.4654 24.568 45.0018 25.2816 44.6789 26.0889C44.3612 26.8962 44.2102 27.7347 44.231 28.6045V31.8076H4.27267C0.595591 31.8076 -3.51378 35.141 -3.51378 39.5941C-3.50337 40.6618 -3.26899 41.6774 -2.81066 42.641C-2.34712 43.6045 -1.70649 44.4326 -0.883575 45.1149C0.814341 46.5993 3.04351 47.3858 4.27267 47.3858H36.0123V56.1306C36.0123 63.9378 41.1112 68.8649 45.2935 72.8858V80.6097C44.6946 80.7087 44.1268 80.9066 43.6008 81.2035C43.0695 81.5003 42.606 81.8806 42.2154 82.3441C41.8196 82.8076 41.5175 83.3233 41.3091 83.891C41.0956 84.4587 40.9914 85.0472 40.9914 85.6514V161H44.4914V85.6722C44.4914 85.4535 44.5331 85.2451 44.6164 85.0472C44.6998 84.8441 44.8143 84.667 44.9706 84.516C45.1268 84.3597 45.3039 84.2451 45.5018 84.1618C45.705 84.0785 45.9133 84.0368 46.132 84.0368H72.5331C72.7518 84.0368 72.9602 84.0785 73.1633 84.1618C73.3664 84.2451 73.5435 84.3597 73.6945 84.516C73.8508 84.667 73.9706 84.8441 74.0539 85.0472C74.1373 85.2451 74.1789 85.4535 74.1789 85.6722V161H77.6789V85.6722C77.6789 85.0628 77.5748 84.4743 77.3612 83.9066C77.1529 83.3337 76.8456 82.8181 76.4498 82.3597C76.0539 81.8962 75.5904 81.516 75.0591 81.2191C74.5279 80.9222 73.9654 80.7243 73.3612 80.6306V72.9014C77.5435 68.8805 80.3039 63.9535 80.3039 56.1306V47.3962H113.231C114.695 47.391 115.033 47.3285 115.356 47.1253ZM8.68413 44.391H5.43934C3.93934 44.417 2.61643 43.943 1.47059 42.9847C0.94976 42.568 0.538301 42.0681 0.236217 41.4795C-0.0710755 40.8858 -0.237742 40.2608 -0.268991 39.5993C-0.268991 36.917 2.30913 34.8128 5.42372 34.8128H8.6633L8.68413 44.391ZM16.2518 44.391H12.0852V34.8233H16.2518V44.391ZM19.6581 44.391V34.8233H44.231V44.3962L19.6581 44.391ZM76.9393 56.1201C76.9393 63.042 74.5904 66.8545 71.1008 70.2087L69.9029 71.417L69.8404 80.542H48.8248L48.7466 71.4431L47.5487 70.2399C44.08 66.8858 39.382 63.0733 39.382 56.1514V47.391H44.2154V52.4118C44.1946 52.6462 44.2206 52.8806 44.2987 53.1045C44.3716 53.3285 44.4914 53.5316 44.6529 53.7035C44.8091 53.8806 45.0018 54.016 45.2154 54.1149C45.4341 54.2087 45.6633 54.2556 45.9029 54.2556C46.1373 54.2556 46.3664 54.2087 46.5852 54.1149C46.8039 54.016 46.9914 53.8806 47.1529 53.7035C47.3091 53.5316 47.4289 53.3285 47.507 53.1045C47.58 52.8806 47.606 52.6462 47.5852 52.4118V28.6097C47.5123 27.8441 47.7466 27.1826 48.2935 26.6358C48.7779 26.1983 49.3508 25.9795 50.007 25.9847C50.6529 25.9847 51.2154 26.1983 51.6893 26.6358C52.1633 27.2608 52.3977 27.9691 52.3977 28.7556V39.9535C52.3977 40.1878 52.4393 40.4118 52.5175 40.6253C52.6008 40.8389 52.7206 41.0316 52.8768 41.2035C53.0331 41.3753 53.2154 41.5108 53.4237 41.6097C53.6321 41.7139 53.8508 41.7712 54.08 41.792C54.3143 41.7868 54.5331 41.7295 54.7414 41.6201C55.0591 41.4639 55.3143 41.2295 55.5018 40.9274C55.6893 40.6253 55.7831 40.2972 55.7883 39.9431V39.0472H55.7623V36.9587H55.7883V31.818H55.7623V25.2139C55.6893 24.4431 55.9289 23.7868 56.4758 23.2347C56.955 22.8076 57.5123 22.5993 58.1581 22.6149C58.7987 22.5993 59.3612 22.8076 59.8404 23.2347C60.3977 23.7816 60.6425 24.4378 60.5748 25.2139C60.5748 34.9066 60.5748 30.5212 60.5748 40.2399C60.5748 40.4691 60.6164 40.6931 60.6945 40.9066C60.7779 41.1201 60.8977 41.3128 61.0539 41.4847C61.2102 41.6566 61.3925 41.792 61.6008 41.891C61.8091 41.9951 62.0279 42.0524 62.257 42.0733C62.6373 42.068 62.9654 41.943 63.2518 41.6983C63.3039 41.6566 63.3508 41.6097 63.3977 41.5628C63.4237 41.542 63.4446 41.5212 63.4654 41.5003C63.7935 41.1358 63.9602 40.7139 63.9602 40.2243V28.641C63.8873 27.8649 64.1268 27.1931 64.6685 26.6358C65.1425 26.1983 65.705 25.9795 66.356 25.9847C67.0071 25.9795 67.58 26.1931 68.0591 26.6358C68.606 27.1931 68.8404 27.8649 68.7675 28.641V43.2295C68.7466 43.4639 68.7727 43.6983 68.8508 43.9222C68.9237 44.1462 69.0435 44.3493 69.205 44.5212C69.3612 44.6983 69.5539 44.8337 69.7675 44.9274C69.9862 45.0264 70.2154 45.0733 70.455 45.0733C70.6893 45.0733 70.9185 45.0264 71.1373 44.9274C71.356 44.8337 71.5435 44.6983 71.705 44.5212C71.8664 44.3493 71.981 44.1462 72.0591 43.9222C72.1321 43.6983 72.1581 43.4639 72.1373 43.2295V35.7347C72.1373 35.0472 72.1998 32.3701 72.5852 31.818C72.6633 31.6878 72.7571 31.568 72.8612 31.4587C73.0904 31.2503 73.3508 31.0889 73.6425 30.9743C73.9289 30.8597 74.231 30.8024 74.5435 30.8024C74.856 30.8024 75.1581 30.8597 75.4498 30.9743C75.7414 31.0889 75.9966 31.2503 76.2258 31.4587C76.7727 32.0003 77.0123 32.6462 76.9393 33.4066V56.1201ZM109.512 43.7608L110.2 44.3545H80.3039V34.8233H110.2L109.512 35.4066C109.356 35.5368 109.231 35.6983 109.142 35.8858C109.054 36.0733 109.007 36.266 109.007 36.4743C109.007 36.6826 109.054 36.8806 109.142 37.0628C109.231 37.2503 109.356 37.4118 109.512 37.542L111.882 39.5993L109.512 41.6566C109.356 41.7868 109.231 41.9483 109.142 42.1358C109.054 42.3233 109.007 42.516 109.007 42.7243C109.007 42.9326 109.054 43.1306 109.142 43.3181C109.231 43.5003 109.356 43.6618 109.512 43.792V43.7608ZM112.726 42.1774L115.241 40.0472C115.351 39.9587 115.403 39.8493 115.403 39.7087C115.403 39.5733 115.351 39.4639 115.241 39.3753L112.627 37.0889C112.517 37.0003 112.46 36.8858 112.46 36.7451C112.46 36.6045 112.517 36.4899 112.627 36.4066C113.122 36.016 113.986 35.3649 114.439 35.0056C114.658 34.8389 114.882 34.8285 115.116 34.9691L122.002 39.1878C122.158 39.2712 122.236 39.4014 122.236 39.5785C122.236 39.7556 122.158 39.8805 122.002 39.9639L114.752 44.2087C114.497 44.3597 114.257 44.3337 114.044 44.1358L112.679 42.8285C112.596 42.7399 112.559 42.6305 112.57 42.5108C112.58 42.3858 112.632 42.2868 112.726 42.2087V42.1774Z" fill="black"/>
<rect x="-8" y="69" width="47" height="51" fill="white"/>
<rect x="81" y="55" width="47" height="65" fill="white"/>
<rect x="80.1699" y="25" width="56" height="36" fill="white"/>
<rect width="2" height="1" transform="matrix(0.194835 0.980836 0.980836 -0.194835 79.9995 31.2129)" fill="white"/>
<rect x="-13" y="12" width="57.23" height="36" fill="white"/>
<path d="M46 48C46 48 14.6473 44.226 15.003 30.1446C15.1405 24.6994 17.4181 19.7104 20.6659 19.0634C22.2312 18.7516 32.886 19.5753 34.0782 21.8337C35.866 25.2204 34.7741 29.0944 37.0586 33.2237C38.2508 35.3786 40.8852 36.0755 46 36.6099" stroke="black" stroke-width="4"/>
<path d="M77.4888 49.471C77.4888 49.471 104.552 49.4839 105.897 35.4621C106.418 30.0399 104.69 24.8023 101.441 23.753C99.8748 23.2473 88.8576 22.7291 87.3618 24.8213C85.1187 27.9588 87.8067 33.9533 84.0913 36.6782C82.2266 38.0457 82.7021 37.9847 77.3965 37.8739" stroke="black" stroke-width="4"/>
<rect x="37" y="97" width="43" height="23" fill="white"/>
</g>
<defs>
<clipPath id="clip0_348_73159">
<rect width="120" height="120" fill="white"/>
</clipPath>
</defs>
</svg>
