<svg width="144" height="144" viewBox="0 0 144 144" fill="none" xmlns="http://www.w3.org/2000/svg">
<g clip-path="url(#clip0_350_73397)">
<rect width="144" height="144" fill="white"/>
<path d="M15.1112 169.589C14.8664 169.834 14.6789 170.115 14.5487 170.433C14.4133 170.756 14.3456 171.084 14.3456 171.433C14.3456 171.776 14.4133 172.105 14.5487 172.427C14.6789 172.745 14.8664 173.026 15.1112 173.271C15.356 173.511 15.6373 173.703 15.9602 173.834C16.2779 173.964 16.6112 174.032 16.955 174.032C17.3039 174.032 17.6373 173.964 17.955 173.834C18.2727 173.703 18.5539 173.511 18.7987 173.271C19.0435 173.026 19.2362 172.745 19.3664 172.427C19.4966 172.105 19.5643 171.776 19.5643 171.433C19.5643 171.084 19.4966 170.756 19.3664 170.433C19.2362 170.115 19.0435 169.834 18.7987 169.589C18.5539 169.349 18.2727 169.162 17.955 169.026C17.6373 168.896 17.3039 168.828 16.955 168.828C16.6112 168.828 16.2779 168.896 15.9602 169.026C15.6373 169.162 15.356 169.349 15.1112 169.589ZM40.5123 104.271C39.6685 104.261 38.8664 104.427 38.0956 104.766V103.391C38.0956 101.464 37.507 98.8649 36.3977 97.792C35.2362 96.7399 33.8768 96.2295 32.3091 96.2503C31.4758 96.2399 30.6789 96.4066 29.9185 96.7451V95.8649C29.9393 95.0003 29.7935 94.1618 29.4706 93.3493C29.1529 92.542 28.6893 91.8285 28.08 91.2087C26.9393 90.2243 25.6164 89.7035 24.1112 89.6514C22.5956 89.6358 21.2883 90.1566 20.1945 91.2087C19.5852 91.8285 19.1216 92.542 18.8039 93.3545C18.4914 94.1618 18.3404 95.0003 18.3664 95.8649V96.7712C17.8456 96.5264 17.3039 96.3649 16.7362 96.2868C16.1633 96.2087 15.6008 96.2139 15.0331 96.3076C14.4654 96.4014 13.9289 96.5733 13.4133 96.8337C12.9029 97.0889 12.4393 97.417 12.0279 97.8128C11.4185 98.4378 10.955 99.1514 10.6373 99.9587C10.3143 100.771 10.1685 101.61 10.1893 102.48V117.224C9.41851 116.886 8.61122 116.719 7.76747 116.73C6.25184 116.714 4.94455 117.235 3.8508 118.282C3.24143 118.901 2.77788 119.615 2.45497 120.417C2.13726 121.224 1.98101 122.058 2.00184 122.927V135.339C2.00184 143.151 7.1008 148.073 11.2779 152.089V159.813C10.6737 159.912 10.106 160.11 9.57476 160.412C9.04351 160.709 8.57476 161.089 8.17892 161.552C7.78309 162.021 7.48101 162.537 7.27268 163.11C7.06434 163.683 6.95497 164.271 6.96018 164.886V181H10.4602V164.886C10.4602 164.667 10.5018 164.459 10.5852 164.256C10.6685 164.058 10.7883 163.881 10.9393 163.724C11.0956 163.568 11.2727 163.453 11.4706 163.37C11.6737 163.287 11.882 163.24 12.1008 163.24H38.5018C38.7206 163.24 38.9341 163.282 39.132 163.365C39.3352 163.448 39.5123 163.568 39.6685 163.724C39.8196 163.875 39.9393 164.052 40.0227 164.256C40.106 164.459 40.1477 164.667 40.1477 164.886V181H43.6581V164.886C43.6529 164.276 43.5487 163.688 43.3352 163.115C43.1268 162.547 42.8248 162.032 42.4289 161.568C42.0331 161.105 41.5695 160.724 41.0383 160.427C40.507 160.131 39.9393 159.933 39.3352 159.834V152.11C43.5175 148.089 46.2779 143.162 46.2779 135.339V110.474C46.2987 109.605 46.1529 108.766 45.8352 107.959C45.5123 107.151 45.0487 106.438 44.4393 105.818C43.3404 104.766 42.0331 104.256 40.5123 104.271ZM42.9081 135.349C42.9081 142.271 40.5539 146.084 37.0695 149.433L35.8716 150.641L35.7883 159.745H14.7935L14.7102 150.641L13.5175 149.438C10.0487 146.089 5.3508 142.282 5.3508 135.355V122.938C5.31955 122.605 5.36122 122.276 5.46538 121.953C5.57476 121.636 5.74663 121.349 5.9758 121.105C6.20497 120.855 6.48101 120.667 6.7883 120.532C7.1008 120.401 7.42892 120.339 7.76747 120.344C8.42372 120.339 8.99142 120.552 9.4758 120.99C10.0227 121.599 10.257 122.302 10.1893 123.115V134.844C10.1841 135.073 10.2258 135.297 10.3091 135.511C10.3873 135.73 10.507 135.922 10.6633 136.089C10.8195 136.261 11.0018 136.396 11.2102 136.5C11.4185 136.599 11.6373 136.657 11.8664 136.677C12.1008 136.662 12.3196 136.599 12.5279 136.5C12.7362 136.396 12.9185 136.261 13.0748 136.094C13.231 135.922 13.3508 135.73 13.4341 135.511C13.5175 135.297 13.5591 135.073 13.5539 134.844V102.474C13.507 102.131 13.5383 101.792 13.6425 101.464C13.7466 101.131 13.9185 100.839 14.1529 100.584C14.3873 100.328 14.6633 100.136 14.981 100C15.3039 99.8701 15.6373 99.8076 15.9862 99.8233C16.632 99.818 17.1945 100.037 17.6685 100.474C18.1425 101.11 18.3716 101.823 18.3664 102.61V122.391C18.3612 122.62 18.4029 122.844 18.4862 123.063C18.5643 123.276 18.6841 123.469 18.8404 123.641C18.9966 123.808 19.1789 123.943 19.3873 124.047C19.5956 124.146 19.8143 124.209 20.0435 124.224C20.2779 124.209 20.4966 124.146 20.705 124.047C20.9133 123.943 21.0956 123.808 21.2518 123.641C21.4029 123.469 21.5227 123.276 21.606 123.063C21.6893 122.844 21.731 122.62 21.7258 122.391V95.8649C21.6581 95.0993 21.8977 94.4378 22.4341 93.8858C22.9185 93.4639 23.481 93.2608 24.1216 93.2712C24.7623 93.2556 25.3248 93.4639 25.8039 93.8858C26.356 94.4326 26.6008 95.0941 26.5383 95.8649C26.5383 105.563 26.5383 112.948 26.5383 122.657C26.5331 122.891 26.5748 123.11 26.6581 123.328C26.7414 123.542 26.8612 123.735 27.0175 123.907C27.1737 124.078 27.356 124.214 27.5643 124.313C27.7727 124.417 27.9914 124.474 28.2258 124.495C28.455 124.474 28.6737 124.417 28.882 124.313C29.0904 124.214 29.2727 124.078 29.4289 123.907C29.5852 123.735 29.705 123.542 29.7883 123.328C29.8664 123.11 29.9081 122.891 29.9029 122.657V102.495C29.8404 101.73 30.0748 101.073 30.6112 100.521C31.0852 100.058 31.6477 99.8233 32.3091 99.8233C32.9654 99.8128 33.5383 100.032 34.0227 100.474C34.5591 101.026 34.7935 101.688 34.731 102.453V125.573C34.705 125.813 34.7362 126.042 34.8091 126.266C34.8821 126.495 35.0018 126.693 35.1633 126.87C35.3248 127.042 35.5123 127.183 35.731 127.276C35.9498 127.37 36.1737 127.422 36.4133 127.422C36.6529 127.422 36.8768 127.37 37.0956 127.276C37.3143 127.183 37.5018 127.042 37.6633 126.87C37.8248 126.693 37.9393 126.495 38.0175 126.266C38.0904 126.042 38.1216 125.813 38.0956 125.573V110.672C38.0071 109.844 38.2518 109.125 38.83 108.526C39.0591 108.318 39.3196 108.157 39.6112 108.047C39.9029 107.933 40.205 107.875 40.5123 107.875C40.8248 107.875 41.1268 107.933 41.4185 108.047C41.705 108.157 41.9654 108.318 42.1998 108.526C42.7414 109.063 42.9758 109.714 42.9081 110.474V135.349ZM108.705 152.078C108.46 152.323 108.273 152.605 108.137 152.922C108.007 153.245 107.939 153.573 107.939 153.922C107.939 154.266 108.007 154.594 108.137 154.917C108.273 155.235 108.46 155.516 108.705 155.761C108.95 156 109.231 156.193 109.549 156.323C109.872 156.453 110.205 156.521 110.549 156.521C110.892 156.521 111.226 156.453 111.549 156.323C111.866 156.193 112.148 156 112.392 155.761C112.637 155.516 112.825 155.235 112.96 154.917C113.09 154.594 113.158 154.266 113.158 153.922C113.158 153.573 113.09 153.245 112.96 152.922C112.825 152.605 112.637 152.323 112.392 152.078C112.148 151.834 111.866 151.646 111.549 151.511C111.231 151.381 110.898 151.313 110.549 151.313C110.205 151.313 109.872 151.375 109.554 151.506C109.231 151.641 108.95 151.828 108.705 152.073V152.078ZM139.861 92.9535C139.882 92.0837 139.731 91.2451 139.413 90.4378C139.096 89.6306 138.632 88.9118 138.023 88.292C136.929 87.2399 135.622 86.7243 134.106 86.7399C133.262 86.7243 132.455 86.891 131.684 87.2347V85.8701C131.684 83.943 131.101 81.3441 129.986 80.2712C128.825 79.2243 127.465 78.7087 125.903 78.7295C125.07 78.7191 124.273 78.8858 123.512 79.2243V78.3389C123.533 77.4691 123.382 76.6305 123.064 75.8233C122.741 75.0108 122.278 74.2972 121.669 73.6774C120.538 72.6983 119.221 72.1826 117.726 72.1306C116.205 72.1201 114.903 72.6358 113.809 73.6826C113.2 74.3024 112.736 75.0212 112.419 75.8285C112.096 76.6358 111.95 77.4743 111.965 78.3389V79.2451C111.45 79.0055 110.908 78.8441 110.34 78.766C109.773 78.6878 109.21 78.6983 108.642 78.7868C108.08 78.8806 107.544 79.0576 107.033 79.3128C106.517 79.5681 106.059 79.891 105.642 80.2868C105.033 80.9066 104.57 81.6201 104.252 82.4326C103.929 83.2399 103.783 84.0785 103.804 84.9483V99.6983C103.033 99.3545 102.226 99.1931 101.382 99.2035C99.8664 99.1931 98.5591 99.7087 97.4654 100.756C96.8508 101.375 96.3821 102.089 96.0591 102.901C95.7362 103.709 95.58 104.547 95.5956 105.422V117.828C95.5956 125.641 100.705 130.563 104.882 134.578V142.302C104.278 142.401 103.715 142.605 103.184 142.901C102.658 143.198 102.195 143.578 101.799 144.042C101.403 144.506 101.101 145.021 100.892 145.589C100.679 146.157 100.575 146.745 100.57 147.355V180.98H104.075V147.355C104.075 147.136 104.116 146.927 104.2 146.724C104.283 146.526 104.403 146.344 104.554 146.193C104.71 146.037 104.887 145.922 105.09 145.839C105.288 145.756 105.502 145.714 105.721 145.714H132.116C132.335 145.714 132.544 145.756 132.747 145.839C132.95 145.922 133.127 146.037 133.278 146.193C133.434 146.344 133.554 146.526 133.637 146.724C133.721 146.927 133.762 147.136 133.762 147.355V180.98H137.262V147.355C137.262 146.745 137.158 146.157 136.945 145.589C136.731 145.016 136.429 144.5 136.033 144.042C135.642 143.578 135.179 143.198 134.648 142.896C134.116 142.599 133.549 142.401 132.95 142.302V134.584C137.127 130.563 139.892 125.636 139.892 117.813L139.861 92.9535ZM136.497 117.813C136.497 124.735 134.148 128.547 130.663 131.907L129.465 133.11L129.382 142.209H108.382L108.304 133.11L107.132 131.927C103.663 128.568 98.9602 124.761 98.9602 117.834V105.407C98.9289 105.068 98.9654 104.74 99.0748 104.417C99.1841 104.099 99.356 103.813 99.5852 103.563C99.8143 103.318 100.09 103.125 100.403 102.995C100.715 102.86 101.038 102.797 101.382 102.802C102.033 102.797 102.601 103.016 103.085 103.453C103.632 104.058 103.866 104.761 103.799 105.573V117.308C103.783 117.542 103.809 117.766 103.887 117.99C103.965 118.209 104.085 118.407 104.241 118.578C104.403 118.75 104.59 118.886 104.804 118.98C105.023 119.073 105.247 119.12 105.481 119.12C105.715 119.12 105.939 119.073 106.158 118.98C106.372 118.886 106.559 118.75 106.715 118.578C106.877 118.407 106.997 118.209 107.075 117.99C107.153 117.766 107.179 117.542 107.163 117.308V84.9483C107.122 84.6097 107.153 84.2712 107.257 83.9483C107.361 83.6201 107.533 83.3285 107.762 83.0785C107.997 82.8233 108.273 82.6358 108.59 82.5003C108.908 82.3701 109.236 82.3076 109.58 82.3233C110.231 82.318 110.788 82.5316 111.262 82.9691C111.736 83.5993 111.976 84.3024 111.971 85.0889V104.87C111.95 105.11 111.976 105.339 112.054 105.563C112.127 105.787 112.247 105.99 112.403 106.162C112.564 106.339 112.757 106.474 112.971 106.573C113.189 106.667 113.419 106.714 113.658 106.714C113.892 106.714 114.122 106.667 114.34 106.573C114.559 106.474 114.747 106.339 114.908 106.162C115.064 105.99 115.184 105.787 115.262 105.563C115.335 105.339 115.361 105.11 115.34 104.87V78.3389C115.267 77.568 115.502 76.9066 116.049 76.3597C116.528 75.9326 117.09 75.7243 117.731 75.7399C118.372 75.7295 118.934 75.9326 119.413 76.3597C119.965 76.9066 120.21 77.5628 120.148 78.3389C120.148 88.0316 120.148 95.417 120.148 105.136C120.127 105.37 120.153 105.599 120.231 105.823C120.304 106.052 120.424 106.25 120.585 106.427C120.741 106.599 120.934 106.74 121.148 106.834C121.366 106.927 121.596 106.98 121.835 106.98C122.07 106.98 122.299 106.927 122.517 106.834C122.736 106.74 122.924 106.599 123.085 106.427C123.247 106.25 123.361 106.052 123.439 105.823C123.512 105.599 123.538 105.37 123.517 105.136V84.9899C123.445 84.2087 123.679 83.542 124.226 82.9795C124.7 82.542 125.262 82.3233 125.908 82.3337C126.564 82.3233 127.132 82.542 127.616 82.9795C128.158 83.542 128.398 84.2087 128.325 84.9899V108.105C128.304 108.339 128.335 108.568 128.413 108.787C128.486 109.006 128.606 109.203 128.767 109.375C128.924 109.547 129.111 109.683 129.33 109.776C129.544 109.87 129.767 109.917 130.002 109.917C130.236 109.917 130.465 109.87 130.679 109.776C130.892 109.683 131.08 109.547 131.241 109.375C131.398 109.203 131.517 109.006 131.596 108.787C131.674 108.568 131.705 108.339 131.684 108.105V93.1514C131.684 92.3128 131.747 91.667 132.424 91.0056C132.783 90.6514 133.215 90.4326 133.715 90.3493C134.21 90.266 134.689 90.3337 135.148 90.5524C135.601 90.7712 135.955 91.0993 136.2 91.542C136.45 91.9795 136.549 92.4535 136.497 92.9535V117.813ZM61.1425 110.396C60.8977 110.641 60.7102 110.922 60.5748 111.24C60.4446 111.558 60.3768 111.891 60.3768 112.235C60.3768 112.578 60.4446 112.912 60.5748 113.23C60.7102 113.547 60.8977 113.828 61.1425 114.073C61.3873 114.318 61.6685 114.506 61.9862 114.636C62.3091 114.771 62.6425 114.834 62.9862 114.834C63.33 114.834 63.6633 114.771 63.9862 114.636C64.3039 114.506 64.5852 114.318 64.83 114.073C65.0748 113.828 65.2623 113.547 65.3977 113.23C65.5279 112.912 65.5956 112.578 65.5956 112.235C65.5956 111.891 65.5279 111.558 65.3977 111.24C65.2623 110.922 65.0748 110.641 64.83 110.396C64.5852 110.151 64.3039 109.964 63.9862 109.828C63.6685 109.698 63.3352 109.631 62.9862 109.631C62.6425 109.631 62.3091 109.693 61.9914 109.823C61.6685 109.953 61.3873 110.141 61.1425 110.386V110.396ZM127.356 67.1253L137.689 60.8337C138.075 60.6097 138.309 60.2764 138.398 59.8441C138.476 59.4222 138.377 59.0524 138.101 58.7243C137.986 58.5785 137.851 58.4587 137.689 58.3649L127.366 52.0837C127.033 51.8805 126.679 51.818 125.231 51.8233H92.1216C91.8768 50.6305 91.3248 49.6045 90.4654 48.7451C89.3716 47.6983 88.0643 47.1826 86.5487 47.1931C85.705 47.1774 84.8977 47.3441 84.1268 47.6878V48.4535C84.1268 46.5264 83.5383 44.9899 82.4237 43.917C81.2727 42.8858 79.9185 42.3753 78.3716 42.3962C77.5331 42.3858 76.7362 42.5524 75.9758 42.891C75.4602 42.0264 74.8508 41.2451 74.132 40.5368C72.9914 39.5576 71.6685 39.0472 70.1685 39.0003C68.6477 38.9847 67.3456 39.5056 66.2518 40.5524C65.5331 41.2556 64.9237 42.042 64.4081 42.9066C63.8925 42.6618 63.3456 42.5003 62.7779 42.4222C62.2102 42.3441 61.6425 42.3493 61.08 42.443C60.5123 42.5368 59.9758 42.7087 59.4602 42.9639C58.9498 43.2243 58.4862 43.5472 58.0695 43.943C57.4654 44.568 57.0018 45.2816 56.6789 46.0889C56.3612 46.8962 56.2102 47.7347 56.231 48.6045V51.8076H16.2727C12.5956 51.8076 8.48622 55.141 8.48622 59.5941C8.49663 60.6618 8.73101 61.6774 9.18934 62.641C9.65288 63.6045 10.2935 64.4326 11.1164 65.1149C12.8143 66.5993 15.0435 67.3858 16.2727 67.3858H48.0123V76.1306C48.0123 83.9378 53.1112 88.8649 57.2935 92.8858V100.61C56.6946 100.709 56.1268 100.907 55.6008 101.203C55.0695 101.5 54.606 101.881 54.2154 102.344C53.8196 102.808 53.5175 103.323 53.3091 103.891C53.0956 104.459 52.9914 105.047 52.9914 105.651V181H56.4914V105.672C56.4914 105.453 56.5331 105.245 56.6164 105.047C56.6998 104.844 56.8143 104.667 56.9706 104.516C57.1268 104.36 57.3039 104.245 57.5018 104.162C57.705 104.078 57.9133 104.037 58.132 104.037H84.5331C84.7518 104.037 84.9602 104.078 85.1633 104.162C85.3664 104.245 85.5435 104.36 85.6945 104.516C85.8508 104.667 85.9706 104.844 86.0539 105.047C86.1373 105.245 86.1789 105.453 86.1789 105.672V181H89.6789V105.672C89.6789 105.063 89.5748 104.474 89.3612 103.907C89.1529 103.334 88.8456 102.818 88.4498 102.36C88.0539 101.896 87.5904 101.516 87.0591 101.219C86.5279 100.922 85.9654 100.724 85.3612 100.631V92.9014C89.5435 88.8805 92.3039 83.9535 92.3039 76.1306V67.3962H125.231C126.695 67.391 127.033 67.3285 127.356 67.1253ZM20.6841 64.391H17.4393C15.9393 64.417 14.6164 63.943 13.4706 62.9847C12.9498 62.568 12.5383 62.0681 12.2362 61.4795C11.9289 60.8858 11.7623 60.2608 11.731 59.5993C11.731 56.917 14.3091 54.8128 17.4237 54.8128H20.6633L20.6841 64.391ZM28.2518 64.391H24.0852V54.8233H28.2518V64.391ZM31.6581 64.391V54.8233H56.231V64.3962L31.6581 64.391ZM88.9393 76.1201C88.9393 83.042 86.5904 86.8545 83.1008 90.2087L81.9029 91.417L81.8404 100.542H60.8248L60.7466 91.4431L59.5487 90.2399C56.08 86.8858 51.382 83.0733 51.382 76.1514V67.391H56.2154V72.4118C56.1946 72.6462 56.2206 72.8806 56.2987 73.1045C56.3716 73.3285 56.4914 73.5316 56.6529 73.7035C56.8091 73.8806 57.0018 74.016 57.2154 74.1149C57.4341 74.2087 57.6633 74.2556 57.9029 74.2556C58.1373 74.2556 58.3664 74.2087 58.5852 74.1149C58.8039 74.016 58.9914 73.8806 59.1529 73.7035C59.3091 73.5316 59.4289 73.3285 59.507 73.1045C59.58 72.8806 59.606 72.6462 59.5852 72.4118V48.6097C59.5123 47.8441 59.7466 47.1826 60.2935 46.6358C60.7779 46.1983 61.3508 45.9795 62.007 45.9847C62.6529 45.9847 63.2154 46.1983 63.6893 46.6358C64.1633 47.2608 64.3977 47.9691 64.3977 48.7556V59.9535C64.3977 60.1878 64.4393 60.4118 64.5175 60.6253C64.6008 60.8389 64.7206 61.0316 64.8768 61.2035C65.0331 61.3753 65.2154 61.5108 65.4237 61.6097C65.6321 61.7139 65.8508 61.7712 66.08 61.792C66.3143 61.7868 66.5331 61.7295 66.7414 61.6201C67.0591 61.4639 67.3143 61.2295 67.5018 60.9274C67.6893 60.6253 67.7831 60.2972 67.7883 59.9431V59.0472H67.7623V56.9587H67.7883V51.818H67.7623V45.2139C67.6893 44.4431 67.9289 43.7868 68.4758 43.2347C68.955 42.8076 69.5123 42.5993 70.1581 42.6149C70.7987 42.5993 71.3612 42.8076 71.8404 43.2347C72.3977 43.7816 72.6425 44.4378 72.5748 45.2139C72.5748 54.9066 72.5748 50.5212 72.5748 60.2399C72.5748 60.4691 72.6164 60.6931 72.6945 60.9066C72.7779 61.1201 72.8977 61.3128 73.0539 61.4847C73.2102 61.6566 73.3925 61.792 73.6008 61.891C73.8091 61.9951 74.0279 62.0524 74.257 62.0733C74.6373 62.068 74.9654 61.943 75.2518 61.6983C75.3039 61.6566 75.3508 61.6097 75.3977 61.5628C75.4237 61.542 75.4446 61.5212 75.4654 61.5003C75.7935 61.1358 75.9602 60.7139 75.9602 60.2243V48.641C75.8873 47.8649 76.1268 47.1931 76.6685 46.6358C77.1425 46.1983 77.705 45.9795 78.356 45.9847C79.0071 45.9795 79.58 46.1931 80.0591 46.6358C80.606 47.1931 80.8404 47.8649 80.7675 48.641V63.2295C80.7466 63.4639 80.7727 63.6983 80.8508 63.9222C80.9237 64.1462 81.0435 64.3493 81.205 64.5212C81.3612 64.6983 81.5539 64.8337 81.7675 64.9274C81.9862 65.0264 82.2154 65.0733 82.455 65.0733C82.6893 65.0733 82.9185 65.0264 83.1373 64.9274C83.356 64.8337 83.5435 64.6983 83.705 64.5212C83.8664 64.3493 83.981 64.1462 84.0591 63.9222C84.1321 63.6983 84.1581 63.4639 84.1373 63.2295V55.7347C84.1373 55.0472 84.1998 52.3701 84.5852 51.818C84.6633 51.6878 84.7571 51.568 84.8612 51.4587C85.0904 51.2503 85.3508 51.0889 85.6425 50.9743C85.9289 50.8597 86.231 50.8024 86.5435 50.8024C86.856 50.8024 87.1581 50.8597 87.4498 50.9743C87.7414 51.0889 87.9966 51.2503 88.2258 51.4587C88.7727 52.0003 89.0123 52.6462 88.9393 53.4066V76.1201ZM121.512 63.7608L122.2 64.3545H92.3039V54.8233H122.2L121.512 55.4066C121.356 55.5368 121.231 55.6983 121.142 55.8858C121.054 56.0733 121.007 56.266 121.007 56.4743C121.007 56.6826 121.054 56.8806 121.142 57.0628C121.231 57.2503 121.356 57.4118 121.512 57.542L123.882 59.5993L121.512 61.6566C121.356 61.7868 121.231 61.9483 121.142 62.1358C121.054 62.3233 121.007 62.516 121.007 62.7243C121.007 62.9326 121.054 63.1306 121.142 63.3181C121.231 63.5003 121.356 63.6618 121.512 63.792V63.7608ZM124.726 62.1774L127.241 60.0472C127.351 59.9587 127.403 59.8493 127.403 59.7087C127.403 59.5733 127.351 59.4639 127.241 59.3753L124.627 57.0889C124.517 57.0003 124.46 56.8858 124.46 56.7451C124.46 56.6045 124.517 56.4899 124.627 56.4066C125.122 56.016 125.986 55.3649 126.439 55.0056C126.658 54.8389 126.882 54.8285 127.116 54.9691L134.002 59.1878C134.158 59.2712 134.236 59.4014 134.236 59.5785C134.236 59.7556 134.158 59.8805 134.002 59.9639L126.752 64.2087C126.497 64.3597 126.257 64.3337 126.044 64.1358L124.679 62.8285C124.596 62.7399 124.559 62.6305 124.57 62.5108C124.58 62.3858 124.632 62.2868 124.726 62.2087V62.1774Z" fill="black"/>
<rect x="1" y="89" width="50" height="55" fill="white"/>
<rect x="93" y="75" width="47" height="69" fill="white"/>
<rect x="92.1699" y="45" width="56" height="36" fill="white"/>
<rect width="2" height="1" transform="matrix(0.194835 0.980836 0.980836 -0.194835 91.9995 51.2129)" fill="white"/>
<rect x="-1" y="32" width="57.23" height="36" fill="white"/>
<path d="M58 68C58 68 26.6473 64.226 27.003 50.1446C27.1405 44.6994 29.4181 39.7104 32.6659 39.0634C34.2312 38.7516 44.886 39.5753 46.0782 41.8337C47.866 45.2204 46.7741 49.0944 49.0586 53.2237C50.2508 55.3786 52.8852 56.0755 58 56.6099" stroke="black" stroke-width="4"/>
<path d="M89.4888 69.471C89.4888 69.471 116.552 69.4839 117.897 55.4621C118.418 50.0399 116.69 44.8023 113.441 43.753C111.875 43.2473 100.858 42.7291 99.3618 44.8213C97.1187 47.9588 99.8067 53.9533 96.0913 56.6782C94.2266 58.0457 94.7021 57.9847 89.3965 57.8739" stroke="black" stroke-width="4"/>
<rect x="49" y="117" width="43" height="27" fill="white"/>
<circle cx="71" cy="73" r="63" stroke="black" stroke-width="4"/>
</g>
<defs>
<clipPath id="clip0_350_73397">
<rect width="144" height="144" fill="white"/>
</clipPath>
</defs>
</svg>
