<svg width="138" height="138" viewBox="0 0 138 138" fill="none" xmlns="http://www.w3.org/2000/svg">
<g clip-path="url(#clip0_51_41)">
<path d="M53.6544 69.9936C53.5992 70.0488 53.544 70.1316 53.4888 70.2144C53.4612 70.2972 53.4336 70.4076 53.4336 70.4904C53.4336 70.5732 53.4612 70.6836 53.4888 70.7664C53.5164 70.8492 53.5716 70.932 53.6544 70.9872C53.7096 71.0424 53.7924 71.0976 53.8752 71.1528C53.958 71.1804 54.0684 71.208 54.1512 71.208C54.234 71.208 54.3444 71.1804 54.4272 71.1528C54.51 71.1252 54.5928 71.07 54.648 70.9872C54.7032 70.932 54.7584 70.8492 54.8136 70.7664C54.8412 70.6836 54.8688 70.5732 54.8688 70.4904C54.8688 70.4076 54.8412 70.2972 54.8136 70.2144C54.786 70.1316 54.7308 70.0488 54.648 69.9936C54.5928 69.9384 54.51 69.8832 54.4272 69.828C54.3444 69.8004 54.234 69.7728 54.1512 69.7728C54.0684 69.7728 53.958 69.8004 53.8752 69.828C53.7924 69.8832 53.7096 69.9108 53.6544 69.9936ZM60.6648 51.9708C60.444 51.9708 60.2232 52.026 60.0024 52.1088V51.7224C60.0024 51.198 59.8368 50.4804 59.5332 50.1768C59.202 49.8732 58.8432 49.7352 58.4016 49.7628C58.1808 49.7628 57.96 49.818 57.7392 49.9008V49.6524C57.7392 49.404 57.7116 49.1832 57.6288 48.9624C57.546 48.7416 57.408 48.5484 57.2424 48.3828C56.9388 48.1068 56.5524 47.9688 56.1384 47.9412C55.7244 47.9412 55.3656 48.0792 55.062 48.3828C54.8964 48.5484 54.7584 48.7416 54.6756 48.9624C54.5928 49.1832 54.5376 49.404 54.5652 49.6524V49.9008C54.4272 49.8456 54.2616 49.7904 54.1236 49.7628C53.958 49.7352 53.82 49.7352 53.6544 49.7628C53.4888 49.7904 53.3508 49.8456 53.2128 49.9008C53.0748 49.9836 52.9368 50.0664 52.8264 50.1768C52.6608 50.3424 52.5228 50.5356 52.44 50.7564C52.3572 50.9772 52.302 51.2256 52.3296 51.4464V55.5036C52.1088 55.4208 51.888 55.3656 51.6672 55.3656C51.2532 55.3656 50.8944 55.5036 50.5908 55.8072C50.4252 55.9728 50.2872 56.166 50.2044 56.3868C50.1216 56.6076 50.0664 56.8284 50.0664 57.0768V60.4992C50.0664 62.652 51.474 64.0044 52.6332 65.136V67.2612C52.4676 67.2888 52.302 67.344 52.164 67.4268C52.026 67.5096 51.888 67.62 51.7776 67.7304C51.6672 67.8684 51.5844 68.0064 51.5292 68.172C51.474 68.3376 51.4464 68.5032 51.4464 68.6688V73.14H52.4124V68.6964C52.4124 68.6412 52.4124 68.586 52.44 68.5308C52.4676 68.4756 52.4952 68.4204 52.5504 68.3928C52.6056 68.3376 52.6332 68.31 52.6884 68.2824C52.7436 68.2548 52.7988 68.2548 52.854 68.2548H60.1404C60.1956 68.2548 60.2508 68.2548 60.306 68.2824C60.3612 68.31 60.4164 68.3376 60.444 68.3928C60.4992 68.448 60.5268 68.4756 60.5544 68.5308C60.582 68.586 60.582 68.6412 60.582 68.6964V73.14H61.548V68.6964C61.548 68.5308 61.5204 68.3652 61.4652 68.1996C61.41 68.034 61.3272 67.896 61.2168 67.7856C61.1064 67.6476 60.9684 67.5648 60.8304 67.482C60.6924 67.3992 60.5268 67.344 60.3612 67.3164V65.1912C61.5204 64.0872 62.2656 62.7348 62.2656 60.5544V53.682C62.2656 53.4336 62.238 53.2128 62.1552 52.992C62.0724 52.7712 61.9344 52.578 61.7688 52.4124C61.4376 52.1088 61.0788 51.9432 60.6648 51.9708ZM61.3272 60.5268C61.3272 62.4312 60.6648 63.48 59.7264 64.4184L59.3952 64.7496L59.3676 67.2612H53.5716L53.544 64.7496L53.2128 64.4184C52.2468 63.5076 50.9496 62.4312 50.9496 60.5268V57.1044C50.9496 57.0216 50.9496 56.9112 50.9772 56.8284C51.0048 56.7456 51.06 56.6628 51.1152 56.6076C51.1704 56.5524 51.2532 56.4972 51.336 56.442C51.4188 56.4144 51.5016 56.3868 51.612 56.3868C51.8052 56.3868 51.9432 56.442 52.0812 56.5524C52.2192 56.718 52.302 56.9112 52.2744 57.132V60.3612C52.2744 60.4164 52.2744 60.4992 52.302 60.5544C52.3296 60.6096 52.3572 60.6648 52.4124 60.72C52.4676 60.7752 52.4952 60.8028 52.5504 60.8304C52.6056 60.858 52.6608 60.8856 52.7436 60.8856C52.7988 60.8856 52.8816 60.858 52.9368 60.8304C52.992 60.8028 53.0472 60.7752 53.0748 60.72C53.13 60.6648 53.1576 60.6096 53.1852 60.5544C53.2128 60.4992 53.2128 60.444 53.2128 60.3612V51.4188C53.2128 51.336 53.2128 51.2256 53.2404 51.1428C53.268 51.06 53.3232 50.9772 53.3784 50.8944C53.4336 50.8116 53.5164 50.784 53.5992 50.7288C53.682 50.7012 53.7924 50.6736 53.8752 50.6736C54.0408 50.6736 54.2064 50.7288 54.3444 50.8668C54.4824 51.0324 54.5376 51.2256 54.5376 51.4464V56.9112C54.5376 56.9664 54.5376 57.0492 54.5652 57.1044C54.5928 57.1596 54.6204 57.2148 54.6756 57.27C54.7308 57.3252 54.7584 57.3528 54.8136 57.3804C54.8688 57.408 54.924 57.4356 55.0068 57.4356C55.062 57.4356 55.1448 57.408 55.2 57.3804C55.2552 57.3528 55.3104 57.3252 55.338 57.27C55.3932 57.2148 55.4208 57.1596 55.4484 57.1044C55.476 57.0492 55.476 56.994 55.476 56.9112V49.5972C55.4484 49.3764 55.5312 49.2108 55.6692 49.0452C55.8072 48.9348 55.9452 48.8796 56.1384 48.8796C56.304 48.8796 56.4696 48.9348 56.6076 49.0452C56.7732 49.1832 56.8284 49.3764 56.8008 49.5972C56.8008 52.2744 56.8008 54.3168 56.8008 56.994C56.8008 57.0492 56.8008 57.132 56.8284 57.1872C56.856 57.2424 56.8836 57.2976 56.9388 57.3528C56.994 57.408 57.0216 57.4356 57.0768 57.4632C57.132 57.4908 57.1872 57.5184 57.27 57.5184C57.3252 57.5184 57.3804 57.4908 57.4632 57.4632C57.5184 57.4356 57.5736 57.408 57.6012 57.3528C57.6288 57.2976 57.684 57.2424 57.7116 57.1872C57.7392 57.132 57.7392 57.0768 57.7392 56.994V51.4188C57.7116 51.198 57.7944 51.0324 57.9324 50.8668C58.0704 50.7288 58.2084 50.6736 58.4016 50.6736C58.5948 50.6736 58.7328 50.7288 58.8708 50.8668C59.0088 51.0324 59.0916 51.198 59.064 51.4188V57.7944C59.064 57.8496 59.064 57.9324 59.0916 57.9876C59.1192 58.0428 59.1468 58.098 59.202 58.1532C59.2572 58.2084 59.2848 58.236 59.3676 58.2636C59.4504 58.2912 59.478 58.2912 59.5608 58.2912C59.616 58.2912 59.6988 58.2636 59.754 58.2636C59.8092 58.2636 59.8644 58.2084 59.9196 58.1532C59.9748 58.098 60.0024 58.0428 60.03 57.9876C60.0576 57.9324 60.0576 57.8496 60.0576 57.7944V53.682C60.03 53.4612 60.1128 53.268 60.2508 53.1024C60.306 53.0472 60.3888 52.992 60.4716 52.9644C60.5544 52.9368 60.6372 52.9092 60.72 52.9092C60.8028 52.9092 60.8856 52.9368 60.9684 52.9644C61.0512 52.992 61.1064 53.0472 61.1892 53.1024C61.3272 53.2404 61.41 53.4336 61.3824 53.6268V60.5268H61.3272ZM79.488 65.1636C79.4328 65.2188 79.3776 65.3016 79.3224 65.3844C79.2948 65.4672 79.2672 65.5776 79.2672 65.6604C79.2672 65.7432 79.2948 65.8536 79.3224 65.9364C79.35 66.0192 79.4052 66.102 79.488 66.1572C79.5432 66.2124 79.626 66.2676 79.7088 66.3228C79.7916 66.3504 79.902 66.378 79.9848 66.378C80.0676 66.378 80.178 66.3504 80.2608 66.3228C80.3436 66.2952 80.4264 66.24 80.4816 66.1572C80.5368 66.102 80.592 66.0192 80.6472 65.9364C80.6748 65.8536 80.7024 65.7432 80.7024 65.6604C80.7024 65.5776 80.6748 65.4672 80.6472 65.3844C80.6196 65.3016 80.5644 65.2188 80.4816 65.1636C80.4264 65.1084 80.3436 65.0532 80.2608 64.998C80.178 64.9704 80.0676 64.9428 79.9848 64.9428C79.902 64.9428 79.7916 64.9704 79.7088 64.998C79.626 65.0256 79.5432 65.0808 79.488 65.1636ZM88.0992 48.8244C88.0992 48.576 88.0716 48.3552 87.9888 48.1344C87.906 47.9136 87.768 47.7204 87.6024 47.5548C87.2988 47.2512 86.94 47.1132 86.526 47.1132C86.3052 47.1132 86.0568 47.1684 85.8636 47.2512V46.8648C85.8636 46.3404 85.698 45.6228 85.3944 45.3192C85.0632 45.0432 84.7044 44.8776 84.2628 44.9052C84.042 44.9052 83.8212 44.9604 83.6004 45.0432V44.7948C83.6004 44.5464 83.5728 44.3256 83.49 44.1048C83.4072 43.884 83.2692 43.6908 83.1036 43.5252C82.8 43.2492 82.4412 43.1112 82.0272 43.1112C81.6132 43.1112 81.2544 43.2492 80.9508 43.5528C80.7852 43.7184 80.6472 43.9116 80.5644 44.1324C80.4816 44.3532 80.4264 44.574 80.4264 44.8224V45.0708C80.2884 45.0156 80.1228 44.9604 79.9848 44.9328C79.8468 44.9052 79.6812 44.9052 79.5156 44.9328C79.35 44.9604 79.212 45.0156 79.074 45.0708C78.936 45.1536 78.798 45.2364 78.6876 45.3468C78.522 45.5124 78.384 45.7056 78.3012 45.9264C78.2184 46.1472 78.1632 46.368 78.1908 46.6164V50.7012C77.97 50.6184 77.7492 50.5632 77.5284 50.5632C77.1144 50.5632 76.7556 50.7012 76.452 51.0048C76.2864 51.1704 76.1484 51.3636 76.0656 51.5844C75.9828 51.8052 75.9276 52.026 75.9276 52.2744V55.6968C75.9276 57.8496 77.3352 59.202 78.4944 60.3336V62.4588C78.3288 62.4864 78.1632 62.5416 78.0252 62.6244C77.8872 62.7072 77.7492 62.8176 77.6388 62.928C77.5284 63.066 77.4456 63.204 77.3904 63.342C77.3352 63.5076 77.3076 63.6732 77.3076 63.8388V73.14H78.2736V63.8664C78.2736 63.8112 78.2736 63.756 78.3012 63.7008C78.3288 63.6456 78.3564 63.5904 78.4116 63.5628C78.4668 63.5076 78.4944 63.48 78.5496 63.4524C78.6048 63.4248 78.66 63.4248 78.7152 63.4248H86.0016C86.0568 63.4248 86.112 63.4248 86.1672 63.4524C86.2224 63.48 86.2776 63.5076 86.3052 63.5628C86.3604 63.618 86.388 63.6456 86.4156 63.7008C86.4432 63.756 86.4432 63.8112 86.4432 63.8664V73.14H87.4092V63.8664C87.4092 63.7008 87.3816 63.5352 87.3264 63.3696C87.2712 63.204 87.1884 63.066 87.078 62.9556C86.9676 62.8176 86.8296 62.7348 86.6916 62.652C86.5536 62.5692 86.388 62.514 86.2224 62.4864V60.3612C87.3816 59.2572 88.1268 57.9048 88.1268 55.7244L88.0992 48.8244ZM87.1608 55.6968C87.1608 57.6012 86.526 58.65 85.56 59.5884L85.2288 59.9196L85.2012 62.4312H79.4052L79.3776 59.9196L79.0464 59.5884C78.0804 58.65 76.7832 57.6012 76.7832 55.6968V52.2744C76.7832 52.1916 76.7832 52.0812 76.8108 51.9984C76.8384 51.9156 76.8936 51.8328 76.9488 51.75C77.004 51.6948 77.0868 51.6396 77.1696 51.5844C77.2524 51.5568 77.3352 51.5292 77.4456 51.5292C77.6388 51.5292 77.7768 51.5844 77.9148 51.7224C78.0528 51.888 78.1356 52.0812 78.108 52.302V55.5312C78.108 55.5864 78.108 55.6692 78.1356 55.7244C78.1632 55.7796 78.1908 55.8348 78.246 55.89C78.3012 55.9452 78.3288 55.9728 78.4116 56.0004C78.4668 56.028 78.522 56.028 78.6048 56.028C78.6876 56.028 78.7428 56.028 78.798 56.0004C78.8532 55.9728 78.9084 55.9452 78.9636 55.89C79.0188 55.8348 79.0464 55.7796 79.074 55.7244C79.1016 55.6692 79.1016 55.614 79.1016 55.5312V46.5888C79.1016 46.506 79.1016 46.3956 79.1292 46.3128C79.1568 46.23 79.212 46.1472 79.2672 46.0644C79.3224 45.9816 79.4052 45.954 79.488 45.8988C79.5708 45.8712 79.6536 45.8436 79.764 45.8436C79.9572 45.8436 80.0952 45.8988 80.2332 46.0092C80.3712 46.1748 80.4264 46.368 80.4264 46.5888V52.0536C80.4264 52.1088 80.4264 52.1916 80.454 52.2468C80.4816 52.302 80.5092 52.3572 80.5368 52.4124C80.592 52.4676 80.6472 52.4952 80.7024 52.5228C80.7576 52.5504 80.8128 52.5504 80.8956 52.5504C80.9508 52.5504 81.0336 52.5504 81.0888 52.5228C81.144 52.4952 81.1992 52.4676 81.2544 52.4124C81.3096 52.3572 81.3372 52.302 81.3648 52.2468C81.3924 52.1916 81.3924 52.1088 81.3924 52.0536V44.7396C81.3648 44.5188 81.4476 44.3532 81.5856 44.1876C81.7236 44.0772 81.8616 44.022 82.0548 44.022C82.2204 44.022 82.386 44.0772 82.524 44.1876C82.6896 44.3256 82.7448 44.5188 82.7172 44.7396C82.7172 47.4168 82.7172 49.4592 82.7172 52.1364C82.7172 52.1916 82.7172 52.2744 82.7448 52.3296C82.7724 52.3848 82.8 52.44 82.8552 52.4952C82.9104 52.5504 82.938 52.578 83.0208 52.6056C83.076 52.6332 83.1312 52.6332 83.214 52.6332C83.2692 52.6332 83.352 52.6056 83.4072 52.6056C83.4624 52.6056 83.5176 52.5504 83.5728 52.4952C83.628 52.44 83.6556 52.3848 83.6832 52.3296C83.7108 52.2744 83.7108 52.1916 83.7108 52.1364V46.644C83.6832 46.4232 83.766 46.2576 83.904 46.092C84.042 45.9816 84.18 45.8988 84.3732 45.9264C84.5664 45.9264 84.7044 45.9816 84.8424 46.092C84.9804 46.2576 85.0632 46.4232 85.0356 46.644V53.0196C85.0356 53.0748 85.0356 53.1576 85.0632 53.2128C85.0908 53.268 85.1184 53.3232 85.1736 53.3784C85.2288 53.4336 85.2564 53.4612 85.3392 53.4888C85.3944 53.5164 85.4496 53.5164 85.5324 53.5164C85.6152 53.5164 85.6704 53.5164 85.7256 53.4888C85.7808 53.4612 85.836 53.4336 85.8912 53.3784C85.9464 53.3232 85.974 53.268 86.0016 53.2128C86.0292 53.1576 86.0292 53.1024 86.0292 53.0196V48.8796C86.0292 48.6588 86.0568 48.4656 86.2224 48.3C86.3328 48.1896 86.4432 48.1344 86.5812 48.1068C86.7192 48.0792 86.8572 48.1068 86.9676 48.162C87.1056 48.2172 87.1884 48.3 87.2712 48.438C87.3264 48.5484 87.354 48.6864 87.354 48.8244V55.6968H87.1608ZM66.3504 53.6544C66.2952 53.7096 66.24 53.7924 66.1848 53.8752C66.1572 53.958 66.1296 54.0684 66.1296 54.1512C66.1296 54.234 66.1572 54.3444 66.1848 54.4272C66.2124 54.51 66.2676 54.5928 66.3504 54.648C66.4056 54.7032 66.4884 54.7584 66.5712 54.8136C66.654 54.8412 66.7644 54.8688 66.8472 54.8688C66.93 54.8688 67.0404 54.8412 67.1232 54.8136C67.206 54.786 67.2888 54.7308 67.344 54.648C67.3992 54.5928 67.4544 54.51 67.5096 54.4272C67.5372 54.3444 67.5648 54.234 67.5648 54.1512C67.5648 54.0684 67.5372 53.958 67.5096 53.8752C67.482 53.7924 67.4268 53.7096 67.344 53.6544C67.2612 53.5992 67.206 53.544 67.1232 53.4888C67.0404 53.4612 66.93 53.4336 66.8472 53.4336C66.7644 53.4336 66.654 53.4612 66.5712 53.4888C66.516 53.5164 66.4332 53.5716 66.3504 53.6544ZM84.6216 41.7036L87.4644 39.9648C87.5748 39.9096 87.63 39.7992 87.6576 39.6888C87.6852 39.5784 87.6576 39.468 87.5748 39.3852C87.5472 39.3576 87.5196 39.3024 87.4644 39.2748L84.6216 37.536C84.5388 37.4808 84.4284 37.4532 84.042 37.4532H74.9064C74.8512 37.122 74.6856 36.846 74.4372 36.5976C74.1336 36.3216 73.7748 36.156 73.3608 36.156C73.14 36.156 72.8916 36.2112 72.6984 36.294V36.5148C72.6984 35.9904 72.5328 35.5488 72.2292 35.2728C71.898 34.9968 71.5392 34.8588 71.0976 34.8588C70.8768 34.8588 70.656 34.914 70.4352 34.9968C70.2972 34.7484 70.1316 34.5552 69.9384 34.3344C69.6348 34.0584 69.2484 33.9204 68.8344 33.9204C68.4204 33.9204 68.0616 34.0584 67.758 34.362C67.5648 34.5552 67.3992 34.776 67.2612 35.0244C67.1232 34.9692 66.9576 34.914 66.8196 34.8864C66.654 34.8588 66.516 34.8588 66.3504 34.8864C66.1848 34.914 66.0468 34.9692 65.9088 35.0244C65.7708 35.1072 65.6328 35.19 65.5224 35.3004C65.3568 35.466 65.2188 35.6592 65.136 35.88C65.0532 36.1008 64.998 36.3216 65.0256 36.57V37.4532H53.9856C52.9644 37.4532 51.8328 38.364 51.8328 39.606C51.8328 39.9096 51.888 40.1856 52.026 40.434C52.164 40.71 52.3296 40.9308 52.5504 41.124C53.0196 41.538 53.6268 41.7588 53.9856 41.7588H62.7348V44.16C62.7348 46.3128 64.1424 47.6652 65.3016 48.7968V50.922C65.136 50.9496 64.9704 51.0048 64.8324 51.0876C64.6944 51.1704 64.5564 51.2808 64.446 51.3912C64.3356 51.5292 64.2528 51.6672 64.1976 51.8052C64.1424 51.9708 64.1148 52.1364 64.1148 52.302V73.14H65.0808V52.3572C65.0808 52.302 65.0808 52.2468 65.1084 52.1916C65.136 52.1364 65.1636 52.0812 65.2188 52.0536C65.274 51.9984 65.3016 51.9708 65.3568 51.9432C65.412 51.9156 65.4672 51.9156 65.5224 51.9156H72.8088C72.864 51.9156 72.9192 51.9156 72.9744 51.9432C73.0296 51.9708 73.0848 51.9984 73.1124 52.0536C73.1676 52.1088 73.1952 52.1364 73.2228 52.1916C73.2504 52.2468 73.2504 52.302 73.2504 52.3572V73.14H74.2164V52.3572C74.2164 52.1916 74.1888 52.026 74.1336 51.8604C74.0784 51.6948 73.9956 51.5568 73.8852 51.4464C73.7748 51.3084 73.6368 51.2256 73.4988 51.1428C73.3608 51.06 73.1952 51.0048 73.0296 50.9772V48.852C74.1888 47.748 74.934 46.3956 74.934 44.2152V41.814H84.0144C84.456 41.7864 84.5388 41.7588 84.6216 41.7036ZM55.2 40.9584H54.3168C53.9028 40.9584 53.544 40.848 53.2128 40.572C53.0748 40.4616 52.9644 40.3236 52.8816 40.158C52.7988 39.9924 52.7436 39.8268 52.7436 39.6336C52.7436 38.8884 53.4612 38.3088 54.3168 38.3088H55.2V40.9584ZM57.27 40.9584H56.1108V38.3088H57.27V40.9584ZM58.2084 40.9584V38.3088H64.998V40.9584H58.2084ZM74.0232 44.1876C74.0232 46.092 73.3884 47.1408 72.4224 48.0792L72.0912 48.4104L72.0636 50.922H66.2676L66.24 48.4104L65.9088 48.0792C64.9428 47.1408 63.6456 46.092 63.6456 44.1876V41.7588H64.9704V43.1388C64.9704 43.194 64.9704 43.2768 64.998 43.332C65.0256 43.3872 65.0532 43.4424 65.1084 43.4976C65.1636 43.5528 65.1912 43.5804 65.274 43.608C65.3292 43.6356 65.3844 43.6356 65.4672 43.6356C65.5224 43.6356 65.6052 43.6356 65.6604 43.608C65.7156 43.5804 65.7708 43.5528 65.826 43.4976C65.8812 43.4424 65.9088 43.3872 65.9364 43.332C65.964 43.2768 65.964 43.194 65.964 43.1388V36.57C65.9364 36.3492 66.0192 36.1836 66.1572 36.018C66.2952 35.9076 66.4608 35.8248 66.6264 35.8248C66.792 35.8248 66.9576 35.88 67.0956 36.018C67.2336 36.1836 67.2888 36.3768 67.2888 36.5976V39.6888C67.2888 39.744 67.2888 39.8268 67.3164 39.882C67.344 39.9372 67.3716 39.9924 67.4268 40.0476C67.482 40.1028 67.5096 40.1304 67.5648 40.158C67.62 40.1856 67.6752 40.2132 67.758 40.2132C67.8132 40.2132 67.896 40.1856 67.9512 40.158C68.034 40.1028 68.1168 40.0476 68.172 39.9648C68.2272 39.882 68.2548 39.7992 68.2548 39.6888V39.468V38.8884V37.4808V35.6592C68.2272 35.4384 68.31 35.2728 68.448 35.1072C68.586 34.9968 68.724 34.9416 68.9172 34.9416C69.0828 34.9416 69.2484 34.9968 69.3864 35.1072C69.552 35.2452 69.6072 35.4384 69.5796 35.6592C69.5796 38.3364 69.5796 37.122 69.5796 39.7992C69.5796 39.8544 69.5796 39.9372 69.6072 39.9924C69.6348 40.0476 69.6624 40.1028 69.7176 40.158C69.7728 40.2132 69.8004 40.2408 69.8556 40.2684C69.9108 40.296 69.966 40.3236 70.0488 40.3236C70.1592 40.3236 70.242 40.296 70.3248 40.2132C70.3524 40.2132 70.3524 40.1856 70.3524 40.1856C70.3524 40.1856 70.3524 40.1856 70.38 40.158C70.4628 40.0476 70.518 39.9372 70.518 39.7992V36.5976C70.4904 36.3768 70.5732 36.2112 70.7112 36.0456C70.8492 35.9352 70.9872 35.8524 71.1804 35.8524C71.3736 35.8524 71.5116 35.9076 71.6496 36.0456C71.7876 36.2112 71.8704 36.3768 71.8428 36.5976V40.6272C71.8428 40.6824 71.8428 40.7652 71.8704 40.8204C71.898 40.8756 71.9256 40.9308 71.9808 40.986C72.036 41.0412 72.0636 41.0688 72.1464 41.0964C72.2016 41.124 72.2568 41.124 72.3396 41.124C72.3948 41.124 72.4776 41.124 72.5328 41.0964C72.588 41.0688 72.6432 41.0412 72.6984 40.986C72.7536 40.9308 72.7812 40.8756 72.8088 40.8204C72.8364 40.7652 72.8364 40.6824 72.8364 40.6272V38.5572C72.8364 38.364 72.864 37.6188 72.9468 37.4808C72.9744 37.4532 73.002 37.4256 73.0296 37.3704C73.0848 37.3152 73.1676 37.26 73.2504 37.2324C73.3332 37.2048 73.416 37.1772 73.4988 37.1772C73.5816 37.1772 73.6644 37.2048 73.7472 37.2324C73.83 37.26 73.8852 37.3152 73.968 37.3704C74.106 37.5084 74.1888 37.7016 74.1612 37.8948V44.1876H74.0232ZM83.0208 40.7928L83.214 40.9584H74.9616V38.3364H83.214L83.0208 38.502C82.9656 38.5296 82.938 38.5848 82.9104 38.64C82.8828 38.6952 82.8828 38.7504 82.8828 38.8056C82.8828 38.8608 82.8828 38.916 82.9104 38.9712C82.938 39.0264 82.9656 39.054 83.0208 39.1092L83.6832 39.6888L83.0208 40.2684C82.9656 40.296 82.938 40.3512 82.9104 40.4064C82.8828 40.4616 82.8828 40.5168 82.8828 40.572C82.8828 40.6272 82.8828 40.6824 82.9104 40.7376C82.938 40.71 82.9656 40.7652 83.0208 40.7928ZM83.904 40.3512L84.594 39.7716C84.6216 39.744 84.6492 39.7164 84.6492 39.6888C84.6492 39.6612 84.6216 39.6336 84.594 39.606L83.8764 38.9712C83.8488 38.9436 83.8212 38.916 83.8212 38.8884C83.8212 38.8608 83.8488 38.8056 83.8764 38.8056C84.0144 38.6952 84.2628 38.5296 84.3732 38.4192C84.4284 38.364 84.4836 38.364 84.5664 38.4192L86.4708 39.5784C86.526 39.606 86.526 39.6336 86.526 39.6888C86.526 39.744 86.4984 39.7716 86.4708 39.7992L84.4836 40.9584C84.4008 41.0136 84.3456 40.986 84.2904 40.9308L83.904 40.572C83.8764 40.5444 83.8764 40.5168 83.8764 40.4892C83.8764 40.4064 83.8764 40.3788 83.904 40.3512Z" fill="#35735C"/>
<path d="M22.6866 84.1351C22.6314 84.0799 22.5486 84.0523 22.4382 84.0523C22.107 84.0523 22.0518 84.3007 22.0518 84.5215C22.0518 84.6319 22.1622 85.6531 22.1622 86.8951V87.5575C22.1622 88.3303 22.1346 89.2135 22.0518 90.1795C21.8034 90.1519 21.4998 90.1243 21.1962 90.1243C20.175 90.1243 19.0434 90.1519 18.0222 90.1795C17.9118 90.0139 17.9394 89.8483 17.9394 89.5447V89.4343C17.967 88.6615 17.967 87.9163 17.967 87.1987V84.1627C17.829 84.0247 17.691 83.9419 17.553 83.9419C17.4426 83.9419 17.3046 83.9695 17.2218 84.0799V86.4259C17.1942 86.7295 17.1666 87.5575 17.1666 88.1647C17.1666 89.7103 17.3598 90.7315 17.3598 92.5807V93.0223C17.3598 94.2367 17.4426 94.9543 17.4426 96.7207C17.4426 97.1623 17.3598 97.4935 17.3598 97.7695C17.3598 98.1835 17.4702 98.4319 17.6634 98.4319C17.7738 98.4319 17.9946 98.3767 18.0498 98.2663L18.1602 97.7143C18.1878 97.5211 18.2154 97.3003 18.2154 97.0519C18.1878 96.2515 18.1878 95.5891 18.1878 95.0371C18.1878 93.9607 18.2154 93.3535 18.2154 93.0499C18.2154 92.2495 18.2154 91.7527 18.105 91.0351C18.1878 90.8971 18.8502 90.9247 19.0986 90.8419C19.2366 90.8143 19.3194 90.8143 19.4574 90.8143C19.761 90.8143 20.037 90.8695 20.3406 90.8695H20.9754C21.3618 90.8695 21.693 90.8971 22.0794 90.9799C22.2174 92.2495 22.3002 93.2983 22.3002 94.4851V98.1559C22.4382 98.2387 22.6866 98.2663 22.8246 98.2663C23.1282 98.2663 23.1282 98.0179 23.1834 97.6591L23.1558 96.8587V96.7483C23.1282 96.3619 23.1282 95.8099 23.1282 95.0647V94.0159C23.1282 92.6083 23.0454 91.9735 23.0454 91.2835C23.0454 90.9799 23.0178 90.7039 23.0454 90.4831C22.935 90.1795 22.9626 89.8759 22.9626 89.5171C22.9626 88.3855 23.0178 87.3367 23.0178 86.4535C23.0178 85.5703 22.9074 84.8251 22.6866 84.1351Z" fill="#35735C"/>
<path d="M30.035 95.8374C29.7866 95.865 29.621 96.003 29.5106 96.3066L29.483 96.3894C29.4278 96.555 29.483 96.831 29.345 97.0794C29.1518 97.4658 28.7654 97.5762 28.3238 97.5762C26.447 97.5762 25.7846 96.7206 25.7846 94.9542C25.7846 94.4022 25.757 93.9882 25.757 93.4638C25.757 93.2982 25.757 93.105 25.7846 92.8842C26.309 92.7738 26.9162 92.7462 28.2962 92.7462H28.5722L28.7378 92.7738C28.9034 92.8014 29.1518 92.8566 29.4554 92.8566C29.7866 92.8566 30.035 92.7462 30.1454 92.4978L30.173 92.4426C29.9246 88.6614 29.5382 87.6678 27.4406 87.6678C25.7018 87.6678 24.8738 88.7166 24.8738 92.001C24.8738 93.5466 24.9014 96.3894 25.4258 97.0242L25.4534 97.107C25.9502 98.1558 27.0542 98.4318 28.0202 98.4318H28.103C29.2898 98.3214 30.311 98.1282 30.311 96.4446C30.2834 96.1134 30.2282 95.9202 30.035 95.8374ZM26.2814 88.9098C26.5022 88.6062 26.861 88.5234 27.3854 88.4682H27.551C27.9926 88.4682 28.1858 88.4958 28.4894 88.6614C28.8758 88.8822 29.0138 89.379 29.069 90.1242C29.1242 90.4554 29.1518 91.035 29.1794 91.9734C28.6274 92.001 28.1858 92.001 27.7442 92.001C26.9438 91.9734 26.3366 91.9734 25.8122 91.9734C25.7846 91.6422 25.757 91.2834 25.757 90.897C25.7294 90.207 25.8398 89.5446 26.2814 88.9098Z" fill="#35735C"/>
<path d="M34.0883 97.7971C33.2879 97.4935 32.7911 96.8863 32.7911 93.8779C32.7911 92.0563 32.8187 94.0987 32.8187 83.8039C32.8187 83.4727 32.5703 83.3899 32.4599 83.3899C32.1563 83.3899 31.9631 83.6383 31.9631 84.0523C31.9631 85.5151 32.0459 86.9779 32.0459 89.4343V94.0159C32.0735 95.5615 32.0735 97.7143 33.3155 98.3491L33.7847 98.5975C33.8951 98.6251 33.9779 98.6251 34.0331 98.6251C34.1435 98.6251 34.2539 98.5975 34.3367 98.4871L34.4471 98.2111L34.0883 97.7971Z" fill="#35735C"/>
<path d="M41.6059 92.7463C41.5783 92.4979 41.5783 92.2495 41.5783 91.6423C41.5783 90.0139 41.4403 88.3855 39.8395 87.7507C39.5083 87.6403 39.1219 87.5851 38.7079 87.5851C37.6315 87.5851 36.3619 88.0267 35.9479 88.9099C35.6443 89.4619 35.5891 90.0967 35.5891 90.7867C35.5891 91.7527 35.7547 92.7739 35.8375 93.6019C35.9479 95.3131 35.9479 96.9691 36.0583 98.7079C36.1135 99.3979 36.1411 100.005 36.1411 100.695C36.1411 101.219 36.1135 101.716 36.0859 102.241C36.0859 103.841 36.0583 104.117 36.0583 104.366C36.0583 104.807 36.1687 105.139 36.6379 105.139L36.7759 105.056C36.9415 104.752 36.9139 104.449 36.9415 104.062C36.9691 103.676 36.9691 103.345 36.9691 102.986V102.268C36.9691 100.833 36.9139 99.3979 36.8863 97.9627C37.4383 98.2663 38.2387 98.4595 38.9011 98.4595C39.6739 98.4595 40.4467 98.2111 40.9987 97.6039C41.5783 96.9691 41.7163 96.0307 41.7163 95.0923V94.0987C41.6335 93.6295 41.6335 93.1327 41.6059 92.7463ZM39.4807 97.4383C39.2599 97.4935 38.9287 97.5487 38.7079 97.5487C38.0731 97.5487 37.3831 97.2727 37.0243 96.7483C36.6103 95.8651 36.6655 94.7611 36.6103 93.7675C36.5551 92.9119 36.4171 92.0287 36.4171 91.0075C36.4171 90.3727 36.4171 89.4619 36.8587 89.0479C37.2451 88.7443 37.7143 88.4131 38.2111 88.3303C38.3491 88.3027 38.5975 88.3027 38.7355 88.3027C39.5083 88.3027 40.2259 88.7995 40.4743 89.5999C40.7227 90.3727 40.6399 92.3047 40.7227 92.6911C40.7503 92.8843 40.7503 93.1051 40.7503 93.3259C40.7503 93.6295 40.7227 94.0159 40.7227 94.3747C40.7779 95.7271 40.6123 97.0795 39.4807 97.4383Z" fill="#35735C"/>
<path d="M56.8298 97.0242C56.747 96.141 56.7194 95.2578 56.7194 94.3746C56.7194 93.4362 56.8298 92.4702 56.8298 91.5042C56.8298 90.1242 56.885 87.7782 55.0634 87.7782H54.953C54.0974 87.7782 53.2694 87.9438 52.883 88.7442C52.4966 88.0542 51.6686 87.6954 50.8682 87.6954C49.6262 87.6954 48.9086 88.3302 48.9086 89.9586V90.3174C48.9086 92.7462 49.0742 95.2302 49.0742 97.659C49.0742 97.9902 49.2398 98.2386 49.5158 98.2386C49.7366 98.2386 49.8746 97.797 49.8746 97.521C49.8746 96.6654 49.7366 95.865 49.7366 95.037C49.7366 94.071 49.7918 92.4702 49.7918 91.5318C49.7918 90.9246 49.7642 90.9522 49.7642 90.069C49.7642 89.4066 49.985 88.551 51.0614 88.551C52.3862 88.551 52.5794 89.931 52.5794 90.897C52.5794 91.2834 52.5518 91.6146 52.5518 91.7802C52.5518 93.105 52.4966 94.347 52.4966 95.727C52.4966 96.7758 52.5242 98.2938 53.0486 98.2938C53.297 98.2938 53.4074 97.8522 53.4074 97.6314C53.3522 96.7758 53.3522 95.9478 53.3522 95.0922V90.6762C53.3522 89.9034 53.4626 88.6062 54.815 88.6062C56.3054 88.6062 56.1398 90.3726 56.1398 91.0074C56.1398 92.0286 56.1121 92.967 56.1121 93.9606V96.5274C56.1121 96.7758 56.0845 97.2174 56.0845 97.5762C56.0845 97.8798 56.0845 98.1282 56.2501 98.2662L56.471 98.349C56.8298 98.349 56.9678 98.0454 56.9678 97.7694C56.9126 97.521 56.8298 97.245 56.8298 97.0242Z" fill="#35735C"/>
<path d="M63.7102 95.8374C63.4618 95.865 63.2962 96.003 63.1858 96.3066L63.1582 96.3894C63.103 96.555 63.1582 96.831 63.0202 97.0794C62.827 97.4658 62.4406 97.5762 61.999 97.5762C60.1222 97.5762 59.4598 96.7206 59.4598 94.9542C59.4598 94.4022 59.4322 93.9882 59.4322 93.4638C59.4322 93.2982 59.4322 93.105 59.4598 92.8842C59.9842 92.7738 60.5914 92.7462 61.9714 92.7462H62.2474L62.413 92.7738C62.5786 92.8014 62.827 92.8566 63.1306 92.8566C63.4618 92.8566 63.7102 92.7462 63.8206 92.4978L63.8482 92.4426C63.5998 88.6614 63.2134 87.6678 61.1158 87.6678C59.377 87.6678 58.549 88.7166 58.549 92.001C58.549 93.5466 58.5766 96.3894 59.101 97.0242L59.1286 97.107C59.6254 98.1558 60.7294 98.4318 61.6954 98.4318H61.7782C62.965 98.3214 63.9862 98.1282 63.9862 96.4446C63.9586 96.1134 63.9034 95.9202 63.7102 95.8374ZM59.9566 88.9098C60.1774 88.6062 60.5362 88.5234 61.0606 88.4682H61.2262C61.6678 88.4682 61.861 88.4958 62.1646 88.6614C62.551 88.8822 62.689 89.379 62.7442 90.1242C62.7994 90.4554 62.827 91.035 62.8546 91.9734C62.3026 92.001 61.861 92.001 61.4194 92.001C60.619 91.9734 60.0118 91.9734 59.4874 91.9734C59.4598 91.6422 59.4322 91.2834 59.4322 90.897C59.4046 90.207 59.515 89.5446 59.9566 88.9098Z" fill="#35735C"/>
<path d="M71.9981 97.6591C72.4673 98.2111 73.2401 98.4871 73.9301 98.4871C74.8133 98.4871 75.4205 98.0455 76.0277 97.5211C76.0277 98.9839 76.1657 100.75 76.1657 101.523C76.1657 102.793 75.7793 103.704 75.6413 103.814C75.3929 104.118 74.8409 104.228 74.3165 104.228C70.8941 104.228 72.9089 100.309 71.5013 100.309C71.2529 100.447 71.1977 100.585 71.1701 100.806C71.3081 103.041 71.4185 103.372 71.8601 104.062C72.3293 104.78 73.5437 105.084 74.2889 105.084C75.7517 105.084 76.9937 104.532 76.9937 101.716C76.9937 100.585 76.8557 99.7291 76.8557 99.1495C76.8557 98.5147 76.8557 98.1559 76.8833 97.8247V96.2791C76.8833 95.1751 76.7729 94.1539 76.7729 93.1051V89.6551C76.6901 89.1307 76.4969 88.7167 76.0553 88.3579L75.8069 88.1647C75.2825 87.8611 74.7305 87.7231 74.1233 87.7231C72.7985 87.7231 71.5013 88.4959 71.0321 89.6551C70.9769 90.0691 70.9493 90.4831 70.9493 90.8971C70.9493 91.6699 70.9217 92.3599 70.9217 93.0775C70.9217 93.4639 70.9769 93.8503 70.9769 94.7059C70.9769 95.6719 71.1977 96.9415 71.9981 97.6591ZM71.7773 92.1115C71.7773 91.5043 71.8049 91.0351 71.8049 90.5659C71.8049 89.3791 72.4397 88.4959 74.0681 88.4959C75.8345 88.4959 76.0001 89.8207 76.0001 91.3939C76.0001 92.3323 75.8897 93.1327 75.8897 93.9055C75.8897 94.5955 75.9173 94.8991 75.9173 95.2303C75.9173 96.4999 75.1169 97.6867 73.8749 97.6867C72.9641 97.6867 72.1913 96.7759 71.9705 96.1963C71.8049 95.8651 71.7773 95.3131 71.7773 94.6231V92.1115Z" fill="#35735C"/>
<path d="M83.5466 95.8374C83.2982 95.865 83.1326 96.003 83.0222 96.3066L82.9946 96.3894C82.9394 96.555 82.967 96.831 82.8566 97.0794C82.6634 97.4658 82.277 97.5762 81.8354 97.5762C79.9586 97.5762 79.2962 96.7206 79.2962 94.9542C79.2962 94.4022 79.2686 93.9882 79.2686 93.4638C79.2686 93.2982 79.2686 93.105 79.2962 92.8842C79.8206 92.7738 80.4278 92.7462 81.8078 92.7462H82.0838L82.2494 92.7738C82.415 92.8014 82.6634 92.8566 82.967 92.8566C83.2982 92.8566 83.5466 92.7462 83.657 92.4978L83.6846 92.4426C83.4362 88.6614 83.0498 87.6678 80.9522 87.6678C79.2134 87.6678 78.3854 88.7166 78.3854 92.001C78.3854 93.5466 78.413 96.3894 78.9374 97.0242L78.965 97.107C79.4618 98.1558 80.5658 98.4318 81.5318 98.4318H81.6146C82.8014 98.3214 83.8226 98.1282 83.8226 96.4446C83.795 96.1134 83.7122 95.9202 83.5466 95.8374ZM79.793 88.9098C80.0138 88.6062 80.3726 88.5234 80.897 88.4682H81.0626C81.5042 88.4682 81.6974 88.4958 82.001 88.6614C82.3874 88.8822 82.5254 89.379 82.5806 90.1242C82.6358 90.4554 82.6634 91.035 82.691 91.9734C82.139 92.001 81.6974 92.001 81.2558 92.001C80.4554 91.9734 79.8482 91.9734 79.3238 91.9734C79.2962 91.6422 79.2686 91.2834 79.2686 90.897C79.2134 90.207 79.3238 89.5446 79.793 88.9098Z" fill="#35735C"/>
<path d="M89.2835 96.5827C88.9799 97.1899 88.7867 97.6867 87.9587 97.6867H87.8759C86.9651 97.6315 86.6063 96.5827 86.6063 95.7271C86.6063 95.0371 86.6339 94.6783 86.6339 94.2643C86.6339 92.9395 86.6339 91.6975 86.6063 90.3727V89.9863C86.6063 89.6827 86.6063 89.4067 86.6339 89.0755C86.6615 88.7443 86.8547 88.8547 87.1583 88.7995L88.5659 88.7443C88.7591 88.7167 88.8695 88.6339 88.8695 88.4683C88.8695 88.2199 88.5935 87.9439 88.2623 87.9439C87.9587 87.9439 87.6275 87.9715 87.2963 87.9715C86.9375 87.9715 86.6615 88.0819 86.6339 87.8611C86.6063 87.3367 86.6063 86.8399 86.6063 86.5087C86.6063 86.1499 86.6063 85.7911 86.6063 85.3495V84.5215C86.6063 84.3559 86.3579 84.2179 86.1095 84.2179C85.9715 84.2179 85.9991 84.2455 85.9163 84.3283C85.7783 84.4939 85.6679 84.9631 85.6679 85.2115V85.7911C85.6679 87.3091 85.8059 87.0055 85.8059 87.9163C85.8059 88.0543 85.6955 88.0267 85.5023 88.0267C85.0331 88.0267 84.8399 88.0267 84.5915 87.9439C84.4811 88.1095 84.3155 88.3855 84.3155 88.5235C84.3155 88.8271 84.7847 88.9375 85.1711 88.9375H85.8059C85.8059 90.4279 85.8335 91.8907 85.8887 93.3811V93.4915C85.8887 94.1815 85.8611 94.9267 85.8611 95.6995C85.8611 96.3067 85.8611 96.8587 86.1647 97.3831C86.5511 98.1007 87.3239 98.4871 88.0415 98.4871C88.3727 98.4871 88.6763 98.4043 89.0075 98.2387C89.6423 97.9351 89.8079 97.6867 90.0287 96.8587C90.0563 96.7483 90.0563 96.6931 90.0563 96.6103C90.0563 96.2791 89.9459 96.1135 89.7527 96.1135C89.4767 96.1687 89.4215 96.4447 89.2835 96.5827Z" fill="#35735C"/>
<path d="M102.599 84.1351C102.544 84.0799 102.461 84.0523 102.351 84.0523C102.02 84.0523 101.965 84.3007 101.965 84.5215C101.965 84.6319 102.075 85.6531 102.075 86.8951V87.5575C102.075 88.3303 102.047 89.2135 101.965 90.1795C101.716 90.1519 101.413 90.1243 101.109 90.1243C100.088 90.1243 98.9563 90.1519 97.9351 90.1795C97.8247 90.0139 97.8523 89.8483 97.8523 89.5447V89.4343C97.8799 88.6615 97.8799 87.9163 97.8799 87.1987V84.1627C97.7419 84.0247 97.6039 83.9419 97.4659 83.9419C97.3555 83.9419 97.2175 83.9695 97.1347 84.0799V86.4259C97.1071 86.7295 97.0795 87.5575 97.0795 88.1647C97.0795 89.7103 97.2727 90.7315 97.2727 92.5807V93.0223C97.2727 94.2367 97.3555 94.9543 97.3555 96.7207C97.3555 97.1623 97.2727 97.4935 97.2727 97.7695C97.2727 98.1835 97.3831 98.4319 97.5763 98.4319C97.6867 98.4319 97.9075 98.3767 97.9627 98.2663L98.0731 97.7143C98.1007 97.5211 98.1283 97.3003 98.1283 97.0519C98.1007 96.2515 98.1007 95.5891 98.1007 95.0371C98.1007 93.9607 98.1283 93.3535 98.1283 93.0499C98.1283 92.2495 98.1283 91.7527 98.0179 91.0351C98.1007 90.8971 98.7631 90.9247 99.0115 90.8419C99.1495 90.8143 99.2323 90.8143 99.3703 90.8143C99.6739 90.8143 99.9499 90.8695 100.253 90.8695H100.888C101.275 90.8695 101.606 90.8971 101.992 90.9799C102.13 92.2495 102.213 93.2983 102.213 94.4851V98.1559C102.351 98.2387 102.599 98.2663 102.737 98.2663C103.041 98.2663 103.041 98.0179 103.096 97.6591L103.069 96.8587V96.7483C103.041 96.3619 103.041 95.8099 103.041 95.0647V94.0159C103.041 92.6083 102.958 91.9735 102.958 91.2835C102.958 90.9799 102.931 90.7039 102.958 90.4831C102.848 90.1795 102.875 89.8759 102.875 89.5171C102.875 88.3855 102.931 87.3367 102.931 86.4535C102.903 85.5703 102.82 84.8251 102.599 84.1351Z" fill="#35735C"/>
<path d="M109.948 95.8374C109.7 95.865 109.534 96.003 109.424 96.3066L109.396 96.3894C109.341 96.555 109.368 96.831 109.258 97.0794C109.065 97.4658 108.678 97.5762 108.237 97.5762C106.36 97.5762 105.698 96.7206 105.698 94.9542C105.698 94.4022 105.67 93.9882 105.67 93.4638C105.67 93.2982 105.67 93.105 105.698 92.8842C106.222 92.7738 106.829 92.7462 108.209 92.7462H108.485L108.651 92.7738C108.816 92.8014 109.065 92.8566 109.368 92.8566C109.7 92.8566 109.948 92.7462 110.058 92.4978L110.086 92.4426C109.838 88.6614 109.451 87.6678 107.354 87.6678C105.615 87.6678 104.787 88.7166 104.787 92.001C104.787 93.5466 104.814 96.3894 105.339 97.0242L105.366 97.107C105.863 98.1558 106.967 98.4318 107.933 98.4318H108.016C109.203 98.3214 110.224 98.1282 110.224 96.4446C110.196 96.1134 110.114 95.9202 109.948 95.8374ZM106.194 88.9098C106.415 88.6062 106.774 88.5234 107.298 88.4682H107.464C107.906 88.4682 108.099 88.4958 108.402 88.6614C108.789 88.8822 108.927 89.379 108.982 90.1242C109.037 90.4554 109.065 91.035 109.092 91.9734C108.54 92.001 108.099 92.001 107.657 92.001C106.857 91.9734 106.25 91.9734 105.725 91.9734C105.698 91.6422 105.67 91.2834 105.67 90.897C105.615 90.207 105.753 89.5446 106.194 88.9098Z" fill="#35735C"/>
<path d="M114.001 97.7971C113.201 97.4935 112.704 96.8863 112.704 93.8779C112.704 92.0563 112.732 94.0987 112.732 83.8039C112.732 83.4727 112.483 83.3899 112.373 83.3899C112.069 83.3899 111.876 83.6383 111.876 84.0523C111.876 85.5151 111.959 86.9779 111.959 89.4343V94.0159C111.986 95.5615 111.986 97.7143 113.228 98.3491L113.698 98.5975C113.808 98.6251 113.891 98.6251 113.946 98.6251C114.056 98.6251 114.167 98.5975 114.25 98.4871L114.36 98.2111L114.001 97.7971Z" fill="#35735C"/>
<path d="M121.491 92.7463C121.464 92.4979 121.464 92.2495 121.464 91.6423C121.464 90.0139 121.326 88.3855 119.725 87.7507C119.394 87.6403 119.007 87.5851 118.593 87.5851C117.517 87.5851 116.247 88.0267 115.833 88.9099C115.53 89.4619 115.474 90.0967 115.474 90.7867C115.474 91.7527 115.64 92.7739 115.723 93.6019C115.833 95.3131 115.833 96.9691 115.944 98.7079C115.999 99.3979 116.026 100.005 116.026 100.695C116.026 101.219 115.999 101.716 115.971 102.241C115.971 103.841 115.944 104.117 115.944 104.366C115.944 104.807 116.054 105.139 116.523 105.139L116.661 105.056C116.827 104.752 116.799 104.449 116.827 104.062C116.854 103.676 116.854 103.345 116.854 102.986V102.268C116.854 100.833 116.799 99.3979 116.772 97.9627C117.324 98.2663 118.124 98.4595 118.786 98.4595C119.559 98.4595 120.332 98.2111 120.884 97.6039C121.464 96.9691 121.602 96.0307 121.602 95.0923V94.0987C121.546 93.6295 121.546 93.1327 121.491 92.7463ZM119.394 97.4383C119.173 97.4935 118.842 97.5487 118.621 97.5487C117.986 97.5487 117.296 97.2727 116.937 96.7483C116.523 95.8651 116.578 94.7611 116.523 93.7675C116.468 92.9119 116.33 92.0287 116.33 91.0075C116.33 90.3727 116.33 89.4619 116.772 89.0479C117.158 88.7443 117.627 88.4131 118.124 88.3303C118.262 88.3027 118.51 88.3027 118.648 88.3027C119.421 88.3027 120.139 88.7995 120.387 89.5999C120.636 90.3727 120.553 92.3047 120.636 92.6911C120.663 92.8843 120.663 93.1051 120.663 93.3259C120.663 93.6295 120.636 94.0159 120.636 94.3747C120.663 95.7271 120.525 97.0795 119.394 97.4383Z" fill="#35735C"/>
<path d="M29.2122 77.7298L29.1294 78.3646C28.7706 77.923 28.2186 77.647 27.5562 77.647C26.4246 77.647 25.569 78.5302 25.569 79.6618C25.569 80.7934 26.4246 81.6766 27.5562 81.6766C28.1634 81.6766 28.6878 81.4558 29.0466 81.0694V81.3178C29.0466 82.2286 28.4946 82.753 27.6666 82.753C27.087 82.753 26.5626 82.477 26.397 81.9526H25.7622C25.983 82.8082 26.673 83.3326 27.6666 83.3326C28.9086 83.3326 29.6538 82.5322 29.6538 81.235V77.7298H29.2122ZM27.6114 81.0418C26.811 81.0418 26.2038 80.4346 26.2038 79.6342C26.2038 78.8338 26.811 78.2266 27.6114 78.2266C28.4118 78.2266 29.019 78.8338 29.019 79.6342C29.019 80.4622 28.4118 81.0418 27.6114 81.0418Z" fill="#35735C"/>
<path d="M30.9121 77.0122H31.6021V76.2946H30.9121V77.0122ZM30.9121 81.787H31.5469V77.7298H30.9121V81.787Z" fill="#35735C"/>
<path d="M35.7217 77.7297L34.3693 80.9589L32.9893 77.7297H32.3269L34.0657 81.7869H34.6453L36.3565 77.7297H35.7217Z" fill="#35735C"/>
<path d="M40.9317 79.7722C40.9317 78.5854 40.1313 77.647 38.8893 77.647C37.7025 77.647 36.8193 78.5578 36.8193 79.7722C36.8193 80.9866 37.7025 81.8974 38.8893 81.8974C39.7725 81.8974 40.4901 81.4006 40.8213 80.5726H40.1589C39.9105 81.0142 39.4689 81.2626 38.8893 81.2626C38.1165 81.2626 37.5645 80.7658 37.4541 80.0206H40.9041C40.9317 79.9378 40.9317 79.855 40.9317 79.7722ZM38.8893 78.2542C39.6069 78.2542 40.1589 78.6958 40.2969 79.4134H37.4817C37.6197 78.6958 38.1717 78.2542 38.8893 78.2542Z" fill="#35735C"/>
<path d="M45.5548 81.2073C45.0028 81.2073 44.6992 80.9037 44.6992 80.3517V78.3093H45.9688V77.7297H44.6992V76.8741H44.6164L43.3468 78.1989V78.3093H44.0644V80.3793C44.0644 81.2625 44.6164 81.7869 45.472 81.7869H45.9964V81.2073H45.5548Z" fill="#35735C"/>
<path d="M48.8624 77.647C48.2828 77.647 47.786 77.8954 47.4824 78.2818V76.2946H46.8476V81.787H47.4824V79.579C47.4824 78.8062 48.0068 78.2266 48.7244 78.2266C49.442 78.2266 49.8008 78.6958 49.8008 79.5238V81.787H50.4356V79.3582C50.4356 78.3094 49.8284 77.647 48.8624 77.647Z" fill="#35735C"/>
<path d="M55.4604 79.7722C55.4604 78.5854 54.66 77.647 53.418 77.647C52.2312 77.647 51.348 78.5578 51.348 79.7722C51.348 80.9866 52.2312 81.8974 53.418 81.8974C54.3012 81.8974 55.0188 81.4006 55.35 80.5726H54.6876C54.4392 81.0142 53.9976 81.2626 53.418 81.2626C52.6452 81.2626 52.0932 80.7658 51.9828 80.0206H55.4328C55.4604 79.9378 55.4604 79.855 55.4604 79.7722ZM53.418 78.2542C54.1356 78.2542 54.6876 78.6958 54.8256 79.4134H52.0104C52.1208 78.6958 52.6728 78.2542 53.418 78.2542Z" fill="#35735C"/>
<path d="M61.7395 77.7298L61.6291 78.3646C61.2703 77.923 60.7183 77.647 60.0559 77.647C58.9243 77.647 58.0687 78.5302 58.0687 79.6618C58.0687 80.7934 58.9243 81.6766 60.0559 81.6766C60.6631 81.6766 61.1875 81.4558 61.5463 81.0694V81.3178C61.5463 82.2286 60.9943 82.753 60.1663 82.753C59.5867 82.753 59.0623 82.477 58.8967 81.9526H58.2619C58.4827 82.8082 59.1727 83.3326 60.1663 83.3326C61.4083 83.3326 62.1535 82.5322 62.1535 81.235V77.7298H61.7395ZM60.1111 81.0418C59.3107 81.0418 58.7035 80.4346 58.7035 79.6342C58.7035 78.8338 59.3107 78.2266 60.1111 78.2266C60.9115 78.2266 61.5187 78.8338 61.5187 79.6342C61.5187 80.4622 60.9391 81.0418 60.1111 81.0418Z" fill="#35735C"/>
<path d="M63.4118 77.0122H64.1018V76.2946H63.4118V77.0122ZM63.4394 81.787H64.0742V77.7298H63.4394V81.787Z" fill="#35735C"/>
<path d="M67.5313 77.7573H66.2617V77.4537C66.2617 76.8741 66.4825 76.6533 67.0621 76.6533H67.5313V76.1289H66.9517C66.0409 76.1289 65.6545 76.5705 65.6545 77.4261V77.7573H64.8541V78.2817H65.6545V81.7869H66.2893V78.2817H67.5313V77.7573Z" fill="#35735C"/>
<path d="M69.9602 81.2073C69.4082 81.2073 69.1046 80.9037 69.1046 80.3517V78.3093H70.3742V77.7297H69.1046V76.8741H69.0218L67.7522 78.1989V78.3093H68.4698V80.3793C68.4698 81.2625 69.0218 81.7869 69.8774 81.7869H70.4018V81.2073H69.9602Z" fill="#35735C"/>
<path d="M75.0476 81.8698C76.262 81.8698 77.2004 80.959 77.2004 79.7446C77.2004 78.5302 76.2896 77.6194 75.0476 77.6194C73.8056 77.6194 72.8948 78.5026 72.8948 79.7446C72.8948 80.9866 73.8056 81.8698 75.0476 81.8698ZM75.0476 81.2626C74.1644 81.2626 73.5572 80.6278 73.5572 79.7722C73.5572 78.9166 74.192 78.2818 75.0476 78.2818C75.9032 78.2818 76.538 78.9166 76.538 79.7722C76.538 80.6278 75.9032 81.2626 75.0476 81.2626Z" fill="#35735C"/>
<path d="M80.3338 77.7573H79.0642V77.4537C79.0642 76.8741 79.285 76.6533 79.8646 76.6533H80.3338V76.1289H79.7542C78.8434 76.1289 78.457 76.5705 78.457 77.4261V77.7573H77.6566V78.2817H78.457V81.7869H79.0918V78.2817H80.3338V77.7573Z" fill="#35735C"/>
<path d="M84.3216 81.8698C85.2876 81.8698 85.9224 81.373 85.9224 80.6278C85.9224 79.6342 85.0944 79.4962 84.4044 79.3858C83.8524 79.303 83.3832 79.2202 83.3832 78.7786C83.3832 78.4198 83.742 78.199 84.2664 78.199C84.846 78.199 85.1772 78.4474 85.2048 78.889H85.812C85.7844 78.1162 85.2048 77.647 84.294 77.647C83.3832 77.647 82.7484 78.1162 82.7484 78.8062C82.7484 79.717 83.5212 79.855 84.2112 79.993C84.7632 80.0758 85.26 80.1862 85.26 80.6554C85.26 81.0418 84.8736 81.2902 84.294 81.2902C83.7144 81.2902 83.3004 81.0142 83.2728 80.545H82.638C82.7484 81.373 83.3556 81.8698 84.3216 81.8698Z" fill="#35735C"/>
<path d="M88.794 82.14C89.898 82.14 90.588 81.4224 90.588 80.346V78H89.9532V80.2356C89.9532 81.036 89.5116 81.5328 88.794 81.5328C88.0764 81.5328 87.6348 81.036 87.6348 80.2356V78H87V80.346C87 81.4224 87.7176 82.14 88.794 82.14Z" fill="#35735C"/>
<path d="M93.4225 81.8698C94.3885 81.8698 95.1613 81.2902 95.4097 80.407H94.7749C94.5265 80.959 94.0297 81.2626 93.4501 81.2626C92.6221 81.2626 91.9873 80.6002 91.9873 79.7722C91.9873 78.9442 92.6221 78.2818 93.4501 78.2818C94.0573 78.2818 94.5541 78.5854 94.7749 79.1374H95.4097C95.1613 78.2542 94.3885 77.6746 93.4225 77.6746C92.2081 77.6746 91.2973 78.5854 91.2973 79.7998C91.3249 80.959 92.2357 81.8698 93.4225 81.8698Z" fill="#35735C"/>
<path d="M98.075 81.8698C99.041 81.8698 99.8138 81.2902 100.062 80.407H99.4274C99.179 80.959 98.6822 81.2626 98.1026 81.2626C97.2746 81.2626 96.6398 80.6002 96.6398 79.7722C96.6398 78.9442 97.2746 78.2818 98.1026 78.2818C98.7098 78.2818 99.2066 78.5854 99.4274 79.1374H100.062C99.8138 78.2542 99.041 77.6746 98.075 77.6746C96.8606 77.6746 95.9498 78.5854 95.9498 79.7998C95.9774 80.959 96.8882 81.8698 98.075 81.8698Z" fill="#35735C"/>
<path d="M104.742 79.7722C104.742 78.5854 103.942 77.647 102.7 77.647C101.513 77.647 100.63 78.5578 100.63 79.7722C100.63 80.9866 101.513 81.8974 102.7 81.8974C103.583 81.8974 104.301 81.4006 104.632 80.5726H103.969C103.721 81.0142 103.279 81.2626 102.7 81.2626C101.927 81.2626 101.375 80.7658 101.265 80.0206H104.715C104.742 79.9378 104.742 79.855 104.742 79.7722ZM102.7 78.2542C103.417 78.2542 103.969 78.6958 104.107 79.4134H101.292C101.43 78.6958 101.982 78.2542 102.7 78.2542Z" fill="#35735C"/>
<path d="M106.978 81.8698C107.944 81.8698 108.579 81.373 108.579 80.6278C108.579 79.6342 107.751 79.4962 107.061 79.3858C106.509 79.303 106.04 79.2202 106.04 78.7786C106.04 78.4198 106.399 78.199 106.923 78.199C107.503 78.199 107.834 78.4474 107.862 78.889H108.469C108.441 78.1162 107.862 77.647 106.951 77.647C106.04 77.647 105.405 78.1162 105.405 78.8062C105.405 79.717 106.178 79.855 106.868 79.993C107.42 80.0758 107.917 80.1862 107.917 80.6554C107.917 81.0418 107.53 81.2902 106.951 81.2902C106.371 81.2902 105.957 81.0142 105.93 80.545H105.295C105.405 81.373 106.04 81.8698 106.978 81.8698Z" fill="#35735C"/>
<path d="M110.835 81.8698C111.801 81.8698 112.436 81.373 112.436 80.6278C112.436 79.6342 111.608 79.4962 110.918 79.3858C110.366 79.303 109.896 79.2202 109.896 78.7786C109.896 78.4198 110.255 78.199 110.78 78.199C111.359 78.199 111.69 78.4474 111.718 78.889H112.325C112.298 78.1162 111.718 77.647 110.807 77.647C109.896 77.647 109.262 78.1162 109.262 78.8062C109.262 79.717 110.034 79.855 110.724 79.993C111.276 80.0758 111.773 80.1862 111.773 80.6554C111.773 81.0418 111.387 81.2902 110.807 81.2902C110.228 81.2902 109.814 81.0142 109.786 80.545H109.151C109.262 81.373 109.869 81.8698 110.835 81.8698Z" fill="#35735C"/>
<path d="M80.666 101.339H79.5068V104.541H79.9208V103.381H80.666C81.2732 103.381 81.7148 102.94 81.7148 102.36C81.7148 101.781 81.2732 101.339 80.666 101.339ZM80.6384 102.995H79.9208V101.725H80.6384C81.0248 101.725 81.3008 102.001 81.3008 102.36C81.3008 102.719 81.0248 102.995 80.6384 102.995Z" fill="#35735C"/>
<path d="M83.3961 102.057C83.0373 102.057 82.7889 102.195 82.5957 102.443L82.5405 102.057H82.2645V104.541H82.6509V103.188C82.6509 102.719 82.8993 102.415 83.3685 102.415H83.6169V102.057H83.3961Z" fill="#35735C"/>
<path d="M85.136 104.596C85.8812 104.596 86.4332 104.044 86.4332 103.299C86.4332 102.553 85.8812 102.001 85.136 102.001C84.3908 102.001 83.8112 102.553 83.8112 103.299C83.8388 104.044 84.3908 104.596 85.136 104.596ZM85.136 104.209C84.6116 104.209 84.2252 103.823 84.2252 103.299C84.2252 102.774 84.6116 102.388 85.136 102.388C85.6604 102.388 86.0468 102.774 86.0468 103.299C86.0468 103.823 85.6604 104.209 85.136 104.209Z" fill="#35735C"/>
<path d="M87.096 101.643H87.51V101.201H87.096V101.643ZM86.4612 105.424H86.6544C87.1512 105.424 87.4824 105.093 87.4824 104.596V102.057H87.096V104.568C87.096 104.872 86.9304 105.065 86.5992 105.065H86.4612V105.424Z" fill="#35735C"/>
<path d="M90.5833 103.326C90.5833 102.609 90.0865 102.029 89.3413 102.029C88.6237 102.029 88.0717 102.581 88.0717 103.326C88.0717 104.071 88.6237 104.623 89.3413 104.623C89.8657 104.623 90.3073 104.32 90.5281 103.823H90.1141C89.9761 104.099 89.7001 104.237 89.3413 104.237C88.8721 104.237 88.5409 103.933 88.4581 103.464H90.5557C90.5833 103.409 90.5833 103.354 90.5833 103.326ZM89.3413 102.388C89.7829 102.388 90.1141 102.664 90.1969 103.105H88.4857C88.5409 102.664 88.8997 102.388 89.3413 102.388Z" fill="#35735C"/>
<path d="M92.2574 104.596C92.837 104.596 93.3062 104.237 93.4718 103.713H93.0854C92.9474 104.044 92.6438 104.237 92.2574 104.237C91.7606 104.237 91.3742 103.851 91.3742 103.326C91.3742 102.802 91.7606 102.415 92.2574 102.415C92.6162 102.415 92.9198 102.609 93.0854 102.94H93.4718C93.3338 102.388 92.8646 102.057 92.2574 102.057C91.5122 102.057 90.9602 102.609 90.9602 103.354C90.9602 104.044 91.5122 104.596 92.2574 104.596Z" fill="#35735C"/>
<path d="M95.0218 104.182C94.6906 104.182 94.4974 103.989 94.4974 103.657V102.415H95.2702V102.057H94.4974V101.532H94.4422L93.6694 102.36V102.415H94.111V103.685C94.111 104.209 94.4422 104.541 94.9666 104.541H95.2978V104.182H95.0218Z" fill="#35735C"/>
<path d="M98.1376 104.596C98.8828 104.596 99.4348 104.044 99.4348 103.299C99.4348 102.553 98.8828 102.001 98.1376 102.001C97.3924 102.001 96.8128 102.553 96.8128 103.299C96.8128 104.044 97.3924 104.596 98.1376 104.596ZM98.1376 104.209C97.6132 104.209 97.2268 103.823 97.2268 103.299C97.2268 102.774 97.6132 102.388 98.1376 102.388C98.662 102.388 99.0484 102.774 99.0484 103.299C99.0484 103.823 98.662 104.209 98.1376 104.209Z" fill="#35735C"/>
<path d="M101.367 102.084H100.594V101.891C100.594 101.532 100.732 101.422 101.091 101.422H101.367V101.118H101.008C100.456 101.118 100.208 101.367 100.208 101.919V102.112H99.7112V102.415H100.208V104.541H100.594V102.415H101.367V102.084Z" fill="#35735C"/>
<path d="M105.28 104.541H105.722L104.369 101.339H104.01L102.686 104.541H103.1L103.403 103.768H104.949L105.28 104.541ZM104.204 101.891L104.838 103.409H103.596L104.204 101.891Z" fill="#35735C"/>
<path d="M108.033 101.725V101.339H106.239V104.541H106.653V103.161H107.923V102.802H106.653V101.753H108.033V101.725Z" fill="#35735C"/>
<path d="M110.657 101.339H108.311V101.725H109.277V104.541H109.664V101.698H110.63V101.339H110.657Z" fill="#35735C"/>
<path d="M113.423 104.541H113.864L112.512 101.339H112.126L110.801 104.541H111.215L111.518 103.768H113.064L113.423 104.541ZM112.319 101.891L112.954 103.409H111.712L112.319 101.891Z" fill="#35735C"/>
<path d="M69 136.648C106.361 136.648 136.648 106.361 136.648 69C136.648 31.6393 106.361 1.35242 69 1.35242C31.6393 1.35242 1.3524 31.6393 1.3524 69C1.3524 106.361 31.6393 136.648 69 136.648Z" stroke="#35735C" stroke-miterlimit="10" stroke-dasharray="7 7"/>
</g>
<defs>
<clipPath id="clip0_51_41">
<rect width="138" height="138" fill="white"/>
</clipPath>
</defs>
</svg>
