<svg width="34" height="91" viewBox="0 0 34 91" fill="none" xmlns="http://www.w3.org/2000/svg">
<path d="M15.2265 20.3907C11.2137 20.0289 9.83645 18.1437 9.83645 18.1437C9.67021 18.0978 9.83645 18.4417 9.83645 18.4417C6.60709 17.043 6.48837 11.2421 6.48837 11.2421C4.92122 8.35311 6.06104 7.11496 6.06104 7.11496C5.8948 6.83979 5.37242 7.2296 5.37242 7.2296C5.53866 6.51873 6.93957 6.67926 6.93957 6.67926C9.21922 2.16236 14.6093 0.878313 14.6093 0.878313C25.0095 -2.2858 24.616 4.11652 24.616 4.11652C24.9807 5.50759 25.82 6.31457 25.82 6.31457C26.0822 6.5496 26.4262 6.6877 26.7126 6.76755C27.0227 6.85399 27.2657 6.87272 27.2657 6.87272C28.0215 7.00156 28.2438 7.26767 28.2438 7.26767C28.7951 7.81718 28.14 8.753 28.14 8.753C28.14 8.753 27.9317 8.96601 28.8751 9.72298C28.8751 9.72298 29.3405 10.0661 28.777 10.6458C28.777 10.6458 28.5198 11.0006 28.5319 11.1309C28.5319 11.1309 29.2425 11.2493 29.1078 11.7342C29.1078 11.7342 28.826 12.373 28.9976 12.6333C28.9976 12.6333 30.1737 14.1357 28.7037 15.0113C28.7037 15.0113 27.0971 15.8275 26.8026 16.1436C26.8026 16.1436 25.4931 17.3134 25.0675 18.9889C25.0675 18.9889 24.4453 20.9491 25.0675 21.2335C25.0675 21.2335 26.2133 21.9923 26.508 23.4466C26.508 23.4466 28.0786 26.5664 27.9916 32.6148C27.9916 32.6148 27.9916 38.495 28.1655 39.9231C28.1655 39.9231 28.1587 40.3211 28.7945 40.9132C28.7945 40.9132 30.0206 42.2288 30.3612 42.6455C30.3612 42.6455 32.4729 44.3346 32.9045 45.3867C32.9045 45.3867 34.1761 45.5837 34.3579 46.0881C34.3579 46.0881 34.4486 46.1758 34.5848 46.4828C34.5848 46.4828 35.1526 47.0091 34.5848 47.1626C34.5848 47.1626 35.3165 47.5574 34.8372 48.3905C34.8372 48.3905 34.6076 48.7852 34.4032 48.807C34.4032 48.807 34.1989 49.5965 33.4949 49.7937C33.4949 49.7937 33.0407 50.4953 32.2687 50.5612C32.2687 50.5612 31.7238 51.1313 30.5884 50.7365C30.5884 50.7365 29.4757 50.1882 28.9535 49.1357C28.9535 49.1357 29.0217 48.8945 27.1142 48.478C27.1142 48.478 27.2041 53.0263 25.0574 56.2413C25.0574 56.2413 24.2689 57.4257 23.9622 57.6797C23.9622 57.6797 23.6555 60.2603 22.3413 62.2909C22.3413 62.2909 21.9436 63.9787 21.5124 66.2986C21.5124 66.2986 21.3583 68.1424 20.7424 69.1538C20.7424 69.1538 20.8656 70.1353 20.2187 70.9976C20.2187 70.9976 20.6499 71.6223 20.2187 72.455C20.2187 72.455 21.7279 73.1389 20.9579 74.6855C20.9579 74.6855 21.4815 75.3697 21.2967 75.6076C21.2967 75.6076 22.0668 75.6374 22.2207 76.0538C22.2207 76.0538 23.2062 76.1132 23.391 76.4405C23.391 76.4405 24.7461 76.5296 25.0849 77.303C25.0849 77.303 26.3477 77.3625 27.4564 77.9277C27.4564 77.9277 28.5961 78.1952 28.7499 78.9092C28.7499 78.9092 29.9512 80.5748 27.0253 81.5561C27.0253 81.5561 25.6086 82.2698 22.313 81.9724C22.313 81.9724 21.1426 81.8199 20.0646 82.0449C20.0646 82.0449 17.1695 82.7457 16.3378 82.1805C16.3378 82.1805 16.3378 82.3293 16.7999 82.6862C16.7999 82.6862 18.4938 83.6973 18.7711 84.5599C18.7711 84.5599 19.0791 85.1845 20.0339 85.4819C20.0339 85.4819 22.3748 86.0172 22.467 87.207C22.467 87.207 23.2371 88.8428 21.3274 89.8838C21.3274 89.8838 18.3091 91.5492 14.3977 89.6755C14.3977 89.6755 12.7653 89.0508 11.6566 88.8129C11.6566 88.8129 6.26672 87.653 7.89909 85.3629C7.89909 85.3629 8.33025 84.4708 8.36116 83.6973C8.36116 83.6973 8.94642 80.6042 10.2399 81.4369C10.2399 81.4369 10.3631 80.9611 10.1783 80.4853C10.1783 80.4853 10.0242 80.2473 10.1783 79.8905C10.1783 79.8905 10.0858 79.4443 10.394 78.79C10.394 78.79 10.2092 77.6599 10.4863 76.5594C10.4863 76.5594 10.9175 70.5815 12.4882 69.5107C12.4882 69.5107 12.7039 67.6073 13.6585 66.596C13.6585 66.596 13.5969 65.6443 14.0281 64.6925C14.0281 64.6925 13.5044 62.9377 13.6892 61.5697C13.6892 61.5697 12.7344 59.0714 12.3957 58.774C12.3957 58.774 10.0858 55.8297 10.6093 53.6288C10.6093 53.6288 10.1193 50.967 10.8908 48.7558C10.8908 48.7558 10.7414 48.3713 10.5922 48.8278C10.5922 48.8278 10.3932 51.0872 7.9042 50.967C7.9042 50.967 6.13713 51.8804 5.53972 49.7653C5.53972 49.7653 -1.53453 32.2972 0.305432 30.1397C0.305432 30.1397 1.532 28.9975 2.49578 29.759C2.49578 29.759 2.80248 28.1092 3.06527 27.9822C3.06527 27.9822 2.80248 24.6825 3.72235 24.7249C3.72235 24.7249 4.73004 24.3019 6.08811 24.4711C6.08811 24.4711 10.1623 21.4675 11.0824 22.356C11.0824 22.356 10.1623 20.4522 11.3015 20.5792C11.3015 20.5792 12.572 20.5368 12.8787 22.3138C12.8787 22.3138 15.0341 21.1759 15.2268 20.3911L15.2265 20.3907Z" fill="#8445C0" fill-opacity="0.17"/>
</svg>
