<svg width="34" height="91" viewBox="0 0 34 91" fill="none" xmlns="http://www.w3.org/2000/svg">
<path d="M14.7915 20.3907C10.8933 20.0289 9.55541 18.1437 9.55541 18.1437C9.39392 18.0978 9.55541 18.4417 9.55541 18.4417C6.41831 17.043 6.30299 11.2421 6.30299 11.2421C4.78061 8.35311 5.88787 7.11496 5.88787 7.11496C5.72638 6.83979 5.21892 7.2296 5.21892 7.2296C5.38041 6.51873 6.7413 6.67926 6.7413 6.67926C8.95582 2.16236 14.1919 0.878313 14.1919 0.878313C24.2949 -2.2858 23.9127 4.11652 23.9127 4.11652C24.267 5.50759 25.0823 6.31457 25.0823 6.31457C25.337 6.5496 25.6711 6.6877 25.9494 6.76755C26.2506 6.85399 26.4867 6.87272 26.4867 6.87272C27.2208 7.00156 27.4368 7.26767 27.4368 7.26767C27.9724 7.81718 27.336 8.753 27.336 8.753C27.336 8.753 27.1337 8.96601 28.05 9.72298C28.05 9.72298 28.5022 10.0661 27.9548 10.6458C27.9548 10.6458 27.7049 11.0006 27.7167 11.1309C27.7167 11.1309 28.407 11.2493 28.2761 11.7342C28.2761 11.7342 28.0024 12.373 28.1691 12.6333C28.1691 12.6333 29.3116 14.1357 27.8836 15.0113C27.8836 15.0113 26.3229 15.8275 26.0368 16.1436C26.0368 16.1436 24.7647 17.3134 24.3512 18.9889C24.3512 18.9889 23.7469 20.9491 24.3512 21.2335C24.3512 21.2335 25.4643 21.9923 25.7506 23.4466C25.7506 23.4466 27.2763 26.5664 27.1919 32.6148C27.1919 32.6148 27.1919 38.495 27.3608 39.9231C27.3608 39.9231 27.3542 40.3211 27.9718 40.9132C27.9718 40.9132 29.1629 42.2288 29.4938 42.6455C29.4938 42.6455 31.5451 44.3346 31.9644 45.3867C31.9644 45.3867 33.1996 45.5837 33.3762 46.0881C33.3762 46.0881 33.4644 46.1758 33.5967 46.4828C33.5967 46.4828 34.1483 47.0091 33.5967 47.1626C33.5967 47.1626 34.3075 47.5574 33.8418 48.3905C33.8418 48.3905 33.6189 48.7852 33.4203 48.807C33.4203 48.807 33.2217 49.5965 32.5379 49.7937C32.5379 49.7937 32.0967 50.4953 31.3468 50.5612C31.3468 50.5612 30.8174 51.1313 29.7145 50.7365C29.7145 50.7365 28.6335 50.1882 28.1262 49.1357C28.1262 49.1357 28.1925 48.8945 26.3395 48.478C26.3395 48.478 26.4268 53.0263 24.3415 56.2413C24.3415 56.2413 23.5755 57.4257 23.2775 57.6797C23.2775 57.6797 22.9796 60.2603 21.703 62.2909C21.703 62.2909 21.3166 63.9787 20.8978 66.2986C20.8978 66.2986 20.7481 68.1424 20.1497 69.1538C20.1497 69.1538 20.2694 70.1353 19.641 70.9976C19.641 70.9976 20.0599 71.6223 19.641 72.455C19.641 72.455 21.1071 73.1389 20.3591 74.6855C20.3591 74.6855 20.8678 75.3697 20.6883 75.6076C20.6883 75.6076 21.4363 75.6374 21.5858 76.0538C21.5858 76.0538 22.5431 76.1132 22.7227 76.4405C22.7227 76.4405 24.039 76.5296 24.3682 77.303C24.3682 77.303 25.5949 77.3625 26.672 77.9277C26.672 77.9277 27.779 78.1952 27.9285 78.9092C27.9285 78.9092 29.0954 80.5748 26.2531 81.5561C26.2531 81.5561 24.8769 82.2698 21.6754 81.9724C21.6754 81.9724 20.5386 81.8199 19.4914 82.0449C19.4914 82.0449 16.6789 82.7457 15.871 82.1805C15.871 82.1805 15.871 82.3293 16.3199 82.6862C16.3199 82.6862 17.9655 83.6973 18.2348 84.5599C18.2348 84.5599 18.534 85.1845 19.4615 85.4819C19.4615 85.4819 21.7355 86.0172 21.8251 87.207C21.8251 87.207 22.5732 88.8428 20.7181 89.8838C20.7181 89.8838 17.7859 91.5492 13.9863 89.6755C13.9863 89.6755 12.4006 89.0508 11.3235 88.8129C11.3235 88.8129 6.08767 87.653 7.6734 85.3629C7.6734 85.3629 8.09225 84.4708 8.12227 83.6973C8.12227 83.6973 8.6908 80.6042 9.94734 81.4369C9.94734 81.4369 10.067 80.9611 9.88751 80.4853C9.88751 80.4853 9.73781 80.2473 9.88751 79.8905C9.88751 79.8905 9.79765 79.4443 10.097 78.79C10.097 78.79 9.91753 77.6599 10.1867 76.5594C10.1867 76.5594 10.6055 70.5815 12.1314 69.5107C12.1314 69.5107 12.341 67.6073 13.2683 66.596C13.2683 66.596 13.2085 65.6443 13.6273 64.6925C13.6273 64.6925 13.1186 62.9377 13.2981 61.5697C13.2981 61.5697 12.3706 59.0714 12.0416 58.774C12.0416 58.774 9.79765 55.8297 10.3061 53.6288C10.3061 53.6288 9.83016 50.967 10.5796 48.7558C10.5796 48.7558 10.4345 48.3713 10.2896 48.8278C10.2896 48.8278 10.0962 51.0872 7.67837 50.967C7.67837 50.967 5.96178 51.8804 5.38145 49.7653C5.38145 49.7653 -1.49069 32.2972 0.296706 30.1397C0.296706 30.1397 1.48823 28.9975 2.42447 29.759C2.42447 29.759 2.72241 28.1092 2.97769 27.9822C2.97769 27.9822 2.72241 24.6825 3.616 24.7249C3.616 24.7249 4.59489 24.3019 5.91417 24.4711C5.91417 24.4711 9.87198 21.4675 10.7658 22.356C10.7658 22.356 9.87198 20.4522 10.9786 20.5792C10.9786 20.5792 12.2128 20.5368 12.5107 22.3138C12.5107 22.3138 14.6045 21.1759 14.7917 20.3911L14.7915 20.3907Z" fill="#8445C0"/>
</svg>
